<?xml version="1.0" encoding="UTF-8" standalone="no"?>
<!-- Created with Inkscape (http://www.inkscape.org/) -->

<svg
   width="25.4mm"
   height="128.5mm"
   viewBox="0 0 25.4 128.5"
   version="1.1"
   id="svg1"
   inkscape:version="1.4 (1:1.4+202410161351+e7c3feb100)"
   sodipodi:docname="modmix.svg"
   xmlns:inkscape="http://www.inkscape.org/namespaces/inkscape"
   xmlns:sodipodi="http://sodipodi.sourceforge.net/DTD/sodipodi-0.dtd"
   xmlns:xlink="http://www.w3.org/1999/xlink"
   xmlns="http://www.w3.org/2000/svg"
   xmlns:svg="http://www.w3.org/2000/svg">
  <sodipodi:namedview
     id="namedview1"
     pagecolor="#ffffff"
     bordercolor="#000000"
     borderopacity="0.25"
     inkscape:showpageshadow="2"
     inkscape:pageopacity="0.0"
     inkscape:pagecheckerboard="0"
     inkscape:deskcolor="#d1d1d1"
     inkscape:document-units="mm"
     inkscape:zoom="4.1978412"
     inkscape:cx="70.155107"
     inkscape:cy="349.94177"
     inkscape:window-width="1247"
     inkscape:window-height="773"
     inkscape:window-x="2461"
     inkscape:window-y="145"
     inkscape:window-maximized="0"
     inkscape:current-layer="layer1" />
  <defs
     id="defs1">
    <linearGradient
       xlink:href="#linearGradient1"
       id="linearGradient2"
       x1="11.075537"
       y1="6.1155901"
       x2="11.075537"
       y2="116.52498"
       gradientUnits="userSpaceOnUse"
       gradientTransform="matrix(1.25,0,0,1,-0.45776904,-3.9691162e-7)" />
    <linearGradient
       id="linearGradient1">
      <stop
         style="stop-color:#eee8d9;stop-opacity:1;"
         offset="0"
         id="stop1" />
      <stop
         style="stop-color:#d0d0d0;stop-opacity:1;"
         offset="1"
         id="stop2" />
    </linearGradient>
    <rect
       x="8.9161816"
       y="7.6351089"
       width="55.323938"
       height="80.673844"
       id="rect2" />
    <linearGradient
       xlink:href="#linearGradient1"
       id="linearGradient2-6"
       x1="11.075537"
       y1="6.1155901"
       x2="11.075537"
       y2="116.52498"
       gradientUnits="userSpaceOnUse"
       gradientTransform="matrix(1.25,0,0,1,-0.45776887,-5.8966793e-7)" />
  </defs>
  <g
     inkscape:label="Layer 1"
     inkscape:groupmode="layer"
     id="layer1">
    <rect
       style="fill:url(#linearGradient2-6);stroke:none;stroke-width:0.33541;stroke-linejoin:round;stroke-dasharray:none;stroke-opacity:1;paint-order:stroke fill markers"
       id="rect1"
       width="25.4"
       height="128.5"
       x="1.4224733e-15"
       y="1.3253287e-14" />
    <path
       style="font-size:3.52778px;font-family:'TeX Gyre Cursor';-inkscape-font-specification:'TeX Gyre Cursor';text-align:center;letter-spacing:-0.116417px;text-anchor:middle;fill:#002f00;stroke-width:0.424;stroke-linejoin:round;paint-order:stroke fill markers"
       d="m 4.6178806,93.83959 c 0,-0.04586 -0.03175,-0.07055 -0.09525,-0.07055 H 4.402686 v -0.896056 c 0,-0.271639 -0.239889,-0.479778 -0.5538614,-0.479778 -0.2187224,0 -0.3457225,0.06703 -0.5503337,0.292805 V 92.442589 H 3.0339074 c -0.0635,0 -0.09525,0.02469 -0.09525,0.07056 0,0.04939 0.03175,0.07408 0.09525,0.07408 h 0.1199445 v 1.181807 H 2.9951018 c -0.067028,0 -0.098778,0.02469 -0.098778,0.07055 0,0.04939 0.03175,0.07408 0.098778,0.07408 H 3.457241 c 0.0635,0 0.09525,-0.0247 0.09525,-0.07408 0,-0.04586 -0.03175,-0.07055 -0.09525,-0.07055 H 3.2984909 v -0.89253 C 3.457241,92.66484 3.5595466,92.53784 3.8347134,92.53784 c 0.2187224,0 0.4233337,0.134055 0.4233337,0.359833 v 0.871362 H 4.1381025 c -0.0635,0 -0.09525,0.02469 -0.09525,0.07055 0,0.04939 0.03175,0.07408 0.09525,0.07408 h 0.3845281 c 0.0635,0 0.09525,-0.0247 0.09525,-0.07408 z m 1.9543847,-0.649111 c 0,-0.448028 -0.352778,-0.797278 -0.8043339,-0.797278 -0.448028,0 -0.8043338,0.352778 -0.8043338,0.786694 0,0.440973 0.3563058,0.790223 0.8043338,0.790223 0.4445003,0 0.8043339,-0.34925 0.8043339,-0.779639 z m -0.144639,0 c 0,0.34925 -0.2963335,0.635 -0.6596949,0.635 -0.3668891,0 -0.6596948,-0.28575 -0.6596948,-0.645584 0,-0.356305 0.2928057,-0.642055 0.6596948,-0.642055 0.3704169,0 0.6596949,0.282222 0.6596949,0.652639 z m 2.1907459,-0.564445 c 0,-0.03175 -0.021167,-0.05997 -0.081139,-0.109361 -0.091722,-0.07761 -0.1693334,-0.109361 -0.2716391,-0.109361 -0.1799167,0 -0.352778,0.09878 -0.6808615,0.395111 V 92.442589 H 7.1755102 c -0.059972,0 -0.09525,0.02822 -0.09525,0.07056 0,0.04586 0.035278,0.07408 0.09525,0.07408 h 0.2645835 v 1.181807 H 7.1014268 c -0.059972,0 -0.09525,0.02822 -0.09525,0.07055 0,0.04586 0.035278,0.07408 0.09525,0.07408 h 1.1147785 c 0.059972,0 0.09525,-0.02822 0.09525,-0.07056 0,-0.04586 -0.035278,-0.07408 -0.09525,-0.07408 H 7.5847327 v -0.77964 c 0.3880558,-0.356305 0.5115281,-0.437444 0.6702782,-0.437444 0.077611,0 0.1481668,0.0388 0.2328335,0.119944 0.024694,0.0247 0.03175,0.02822 0.056444,0.02822 0.042333,0 0.074083,-0.03175 0.074083,-0.07408 z m 2.1836898,1.213556 c 0,-0.04586 -0.03175,-0.07055 -0.09525,-0.07055 h -0.119944 v -0.994834 c 0,-0.208139 -0.165806,-0.381 -0.370417,-0.381 -0.144639,0 -0.2610558,0.07408 -0.3986393,0.250472 -0.077611,-0.169334 -0.1905001,-0.250472 -0.3421946,-0.250472 -0.1481668,0 -0.2504724,0.0635 -0.3704169,0.232833 v -0.18345 H 8.8441444 c -0.0635,0 -0.09525,0.02469 -0.09525,0.07056 0,0.04939 0.03175,0.07408 0.09525,0.07408 H 8.964089 v 1.181807 H 8.8441444 c -0.0635,0 -0.09525,0.02469 -0.09525,0.07055 0,0.04939 0.03175,0.07408 0.091722,0.07408 h 0.384528 c 0.059972,0 0.09525,-0.0247 0.09525,-0.07408 0,-0.04586 -0.03175,-0.07055 -0.09525,-0.07055 H 9.1052002 v -0.941918 c 0.1340556,-0.201083 0.2469446,-0.289277 0.3704169,-0.289277 0.1199445,0 0.2293057,0.123472 0.2293057,0.261055 v 1.114779 h 0.2610557 c 0.0635,0 0.095251,-0.0247 0.095251,-0.07408 0,-0.04586 -0.03175,-0.07055 -0.095251,-0.07055 H 9.846034 v -0.941918 c 0.1340556,-0.204611 0.239889,-0.289277 0.366889,-0.289277 0.123472,0 0.232834,0.116416 0.232834,0.250472 v 1.125362 h 0.261055 c 0.0635,0 0.09525,-0.0247 0.09525,-0.07408 z m 3.70063,0 c 0,-0.04586 -0.03175,-0.07055 -0.09878,-0.07055 H 13.83947 V 91.7829 h -0.55739 c -0.0635,0 -0.09525,0.02469 -0.09525,0.07055 0,0.04939 0.03175,0.07408 0.09525,0.07408 h 0.412751 v 1.841501 h -0.564445 c -0.0635,0 -0.09525,0.02469 -0.09525,0.07055 0,0.04939 0.03175,0.07408 0.09525,0.07408 h 1.273528 c 0.0635,0 0.09878,-0.0247 0.09878,-0.07408 z m 2.04258,-0.627944 c 0,-0.162278 -0.01058,-0.229306 -0.05997,-0.345723 -0.127,-0.292806 -0.409222,-0.472722 -0.747889,-0.472722 -0.451556,0 -0.804334,0.328083 -0.804334,0.754944 0,0.458612 0.377473,0.821973 0.853723,0.821973 0.321028,0 0.744361,-0.165805 0.744361,-0.289278 0,-0.03881 -0.03175,-0.07055 -0.06703,-0.07055 -0.01764,0 -0.03175,0.0071 -0.05645,0.02469 -0.141111,0.112889 -0.398639,0.1905 -0.617361,0.1905 -0.381001,0 -0.663223,-0.243417 -0.712612,-0.613833 z m -0.148167,-0.144639 h -1.31939 c 0.0635,-0.324556 0.3175,-0.529167 0.659695,-0.529167 0.342195,0 0.60325,0.208139 0.659695,0.529167 z m 2.324802,-0.553862 c 0,-0.04586 -0.03175,-0.07056 -0.09525,-0.07056 h -0.536223 c -0.0635,0 -0.09525,0.02469 -0.09525,0.07056 0,0.04939 0.03175,0.07408 0.09525,0.07408 h 0.239889 l -0.518584,1.181807 h -0.06703 l -0.529167,-1.181807 h 0.229305 c 0.06703,0 0.09878,-0.02469 0.09878,-0.07408 0,-0.04586 -0.03175,-0.07056 -0.09878,-0.07056 h -0.532694 c -0.0635,0 -0.09525,0.02469 -0.09525,0.07056 0,0.04939 0.03175,0.07408 0.09525,0.07408 h 0.144638 l 0.592668,1.326446 h 0.246944 l 0.585612,-1.326446 h 0.144639 c 0.0635,0 0.09525,-0.02469 0.09525,-0.07408 z m 1.823857,0.698501 c 0,-0.162278 -0.01058,-0.229306 -0.05997,-0.345723 -0.127,-0.292806 -0.409222,-0.472722 -0.747889,-0.472722 -0.451556,0 -0.804334,0.328083 -0.804334,0.754944 0,0.458612 0.377473,0.821973 0.853723,0.821973 0.321028,0 0.744362,-0.165805 0.744362,-0.289278 0,-0.03881 -0.03175,-0.07055 -0.06703,-0.07055 -0.01764,0 -0.03175,0.0071 -0.05645,0.02469 -0.141111,0.112889 -0.398639,0.1905 -0.617361,0.1905 -0.381,0 -0.663223,-0.243417 -0.712612,-0.613833 z m -0.148167,-0.144639 h -1.31939 c 0.0635,-0.324556 0.3175,-0.529167 0.659695,-0.529167 0.342195,0 0.60325,0.208139 0.659695,0.529167 z m 2.106079,0.772583 c 0,-0.04586 -0.03175,-0.07055 -0.09878,-0.07055 H 21.840451 V 91.7829 h -0.557389 c -0.0635,0 -0.09525,0.02469 -0.09525,0.07055 0,0.04939 0.03175,0.07408 0.09525,0.07408 h 0.41275 v 1.841501 H 21.13137 c -0.0635,0 -0.09525,0.02469 -0.09525,0.07055 0,0.04939 0.03175,0.07408 0.09525,0.07408 h 1.273529 c 0.0635,0 0.09878,-0.0247 0.09878,-0.07408 z"
       id="text4-4-0-0-1-2-3-9-8"
       aria-label="norm level&#10;&#10;&#10;&#10;&#10;" />
    <path
       style="font-size:4.46626px;font-family:'TeX Gyre Cursor';-inkscape-font-specification:'TeX Gyre Cursor';text-align:center;letter-spacing:-0.122822px;text-anchor:middle;fill:#002f00;stroke-width:0.447329;stroke-linejoin:round;paint-order:stroke fill markers"
       d="m 12.318548,42.826967 c 0,-0.06131 -0.03807,-0.09433 -0.118425,-0.09433 h -0.676717 v -1.77333 H 10.85092 c -0.07613,0 -0.114196,0.03301 -0.114196,0.09432 0,0.06603 0.03807,0.09904 0.114196,0.09904 h 0.499077 v 1.579961 h -0.676715 c -0.07613,0 -0.114196,0.03301 -0.114196,0.09433 0,0.06603 0.03807,0.09904 0.114196,0.09904 h 1.526841 c 0.07613,0 0.118425,-0.03301 0.118425,-0.09904 z m -0.668257,-2.53737 c 0,-0.132056 -0.09305,-0.240531 -0.211474,-0.240531 -0.114196,0 -0.211474,0.108475 -0.211474,0.235815 0,0.12734 0.09728,0.235815 0.211474,0.235815 0.114196,0 0.211474,-0.108475 0.211474,-0.231099 z m 3.229198,2.53737 c 0,-0.06131 -0.03807,-0.09433 -0.114196,-0.09433 h -0.143802 v -1.197941 c 0,-0.363155 -0.287605,-0.641417 -0.664028,-0.641417 -0.262227,0 -0.414489,0.08961 -0.659798,0.391453 v -0.325425 h -0.317211 c -0.07613,0 -0.114195,0.03301 -0.114195,0.09432 0,0.06603 0.03807,0.09904 0.114195,0.09904 h 0.143803 v 1.579961 H 12.93393 c -0.08036,0 -0.118425,0.03301 -0.118425,0.09433 0,0.06603 0.03807,0.09904 0.118425,0.09904 h 0.554061 c 0.07613,0 0.114196,-0.03301 0.114196,-0.09904 0,-0.06131 -0.03807,-0.09433 -0.114196,-0.09433 h -0.190326 v -1.193224 c 0.190326,-0.282978 0.312982,-0.452765 0.64288,-0.452765 0.262228,0 0.507537,0.17922 0.507537,0.481062 v 1.164927 H 14.30428 c -0.07613,0 -0.114196,0.03301 -0.114196,0.09433 0,0.06603 0.03807,0.09904 0.114196,0.09904 h 0.461013 c 0.07613,0 0.114196,-0.03301 0.114196,-0.09904 z"
       id="text4-4-0-0-1-2-3"
       aria-label="in&#10;&#10;&#10;&#10;&#10;" />
    <path
       style="font-size:4.23333px;font-family:'TeX Gyre Cursor';-inkscape-font-specification:'TeX Gyre Cursor';text-align:center;letter-spacing:-0.116417px;text-anchor:middle;fill:#002f00;stroke-width:0.424;stroke-linejoin:round;paint-order:stroke fill markers"
       d="m 7.0634606,49.870406 c 0,-0.05503 -0.0381,-0.08467 -0.1185332,-0.08467 H 6.2675946 V 47.402374 H 5.5987285 c -0.0762,0 -0.1142999,0.02963 -0.1142999,0.08467 0,0.05927 0.0381,0.0889 0.1142999,0.0889 h 0.4952996 v 2.209798 H 5.4166953 c -0.0762,0 -0.1142999,0.02963 -0.1142999,0.08467 0,0.05927 0.0381,0.0889 0.1142999,0.0889 h 1.5282321 c 0.0762,0 0.1185332,-0.02963 0.1185332,-0.0889 z m 2.5082411,-0.778933 c 0,-0.537633 -0.423333,-0.956733 -0.9651992,-0.956733 -0.5376329,0 -0.9651992,0.423333 -0.9651992,0.944033 0,0.529166 0.4275663,0.948266 0.9651992,0.948266 0.5333995,0 0.9651992,-0.4191 0.9651992,-0.935566 z m -0.1735666,0 c 0,0.4191 -0.3555997,0.761999 -0.7916326,0.761999 -0.4402663,0 -0.7916327,-0.342899 -0.7916327,-0.774699 0,-0.427566 0.3513664,-0.770466 0.7916327,-0.770466 0.4444996,0 0.7916326,0.338666 0.7916326,0.783166 z"
       id="text4-4-0-0-1-2-3-9"
       aria-label="lo&#10;&#10;&#10;&#10;&#10;" />
    <path
       style="font-size:4.23333px;font-family:'TeX Gyre Cursor';-inkscape-font-specification:'TeX Gyre Cursor';text-align:center;letter-spacing:-0.116417px;text-anchor:middle;fill:#002f00;stroke-width:0.424;stroke-linejoin:round;paint-order:stroke fill markers"
       d="m 17.754939,49.870406 c 0,-0.05503 -0.0381,-0.08467 -0.118533,-0.08467 h -0.1905 v -1.058332 c 0,-0.3429 -0.279399,-0.592667 -0.673099,-0.592667 -0.258233,0 -0.436033,0.09737 -0.651933,0.3556 v -1.087966 h -0.402166 c -0.0762,0 -0.1143,0.02963 -0.1143,0.08467 0,0.05927 0.0381,0.0889 0.1143,0.0889 h 0.2286 v 2.209798 h -0.194734 c -0.0762,0 -0.114299,0.02963 -0.114299,0.08467 0,0.05927 0.04233,0.0889 0.114299,0.0889 h 0.5588 c 0.0762,0 0.118533,-0.02963 0.118533,-0.0889 0,-0.05503 -0.0381,-0.08467 -0.118533,-0.08467 h -0.1905 V 48.70624 l 0.04657,-0.05503 c 0.2286,-0.270933 0.347133,-0.3429 0.584199,-0.3429 0.275167,0 0.5207,0.1524 0.5207,0.4318 v 1.045632 h -0.1905 c -0.0762,0 -0.1143,0.02963 -0.1143,0.08467 0,0.05927 0.0381,0.0889 0.1143,0.0889 h 0.554566 c 0.08043,0 0.118533,-0.02963 0.118533,-0.0889 z m 2.241542,0 c 0,-0.05503 -0.0381,-0.08467 -0.118533,-0.08467 h -0.677333 v -1.591732 h -0.6731 c -0.0762,0 -0.1143,0.02963 -0.1143,0.08467 0,0.05927 0.0381,0.0889 0.1143,0.0889 h 0.499533 v 1.418165 h -0.677333 c -0.0762,0 -0.114299,0.02963 -0.114299,0.08467 0,0.05927 0.0381,0.0889 0.114299,0.0889 h 1.528233 c 0.0762,0 0.118533,-0.02963 0.118533,-0.0889 z m -0.668866,-2.277532 c 0,-0.118533 -0.09313,-0.2159 -0.211667,-0.2159 -0.1143,0 -0.211666,0.09737 -0.211666,0.211667 0,0.1143 0.09737,0.211666 0.211666,0.211666 0.1143,0 0.211667,-0.09737 0.211667,-0.207433 z"
       id="text4-4-0-0-1-2-3-9-1"
       aria-label="hi&#10;&#10;&#10;&#10;&#10;" />
    <rect
       style="fill:none;fill-opacity:1;stroke:#002f00;stroke-width:0.380914;stroke-linejoin:round;stroke-opacity:1;paint-order:stroke fill markers"
       id="rect9-1"
       width="20.980822"
       height="22.984526"
       x="2.2288766"
       y="22.0595"
       ry="0.80563587" />
    <rect
       style="fill:none;fill-opacity:1;stroke:#002f00;stroke-width:0.306765;stroke-linejoin:round;stroke-opacity:1;paint-order:stroke fill markers"
       id="rect9-1-6"
       width="21.093235"
       height="14.82778"
       x="2.1533833"
       y="90.408775"
       ry="0.51973188" />
    <rect
       style="fill:none;fill-opacity:1;stroke:#000000;stroke-width:0.0804692;stroke-linejoin:round;stroke-dasharray:none;stroke-opacity:0.0637355;paint-order:stroke fill markers"
       id="rect2-0"
       width="21.31953"
       height="120.09961"
       x="2.0402346"
       y="2.0402346" />
    <g
       id="g1"
       transform="translate(-16.216214,4.7844881)">
      <g
         id="text1"
         style="font-size:32px;line-height:0.7;font-family:'TeX Gyre Cursor';-inkscape-font-specification:'TeX Gyre Cursor';text-align:center;letter-spacing:0px;white-space:pre;fill:#004021;stroke-width:1.60252;stroke-linejoin:round;paint-order:stroke fill markers"
         transform="matrix(0.26458333,0,0,0.26458333,19.160641,-1.7647959)"
         aria-label="Mod Mix&#10;">
        <path
           style="font-size:26.6667px;font-family:'TeX Gyre Schola Math';-inkscape-font-specification:'TeX Gyre Schola Math';text-anchor:middle"
           d="m 34.018177,28.882765 v -1.253334 h -0.48 c -2.160003,0 -2.400003,-0.106667 -2.400003,-1.253335 V 12.136078 c 0,-1.120002 0.24,-1.253335 2.400003,-1.253335 h 0.48 V 9.6294078 H 27.324836 L 22.444829,23.842759 17.324823,9.6294078 h -6.880009 v 1.2533352 h 0.506667 c 2.160003,0 2.400004,0.133333 2.400004,1.253335 v 10.98668 c 0,3.626671 -0.533334,4.400006 -3.093338,4.506673 v 1.253334 h 7.60001 V 27.629431 C 15.32482,27.522764 14.791486,26.749429 14.791486,23.122758 V 11.336077 l 6.346675,17.546688 h 1.066668 l 5.946674,-17.546688 v 15.040019 c 0,1.146668 -0.24,1.253335 -2.400003,1.253335 h -0.48 v 1.253334 z m 13.253306,-6.213341 c 0,-3.653338 -2.560003,-6.613341 -5.706674,-6.613341 -3.253337,0 -5.813341,2.90667 -5.813341,6.640008 0,3.653338 2.560004,6.586675 5.760008,6.586675 3.200004,0 5.760007,-2.933337 5.760007,-6.613342 z m -2.800004,0 c 0,3.546671 -1.040001,5.466674 -2.960003,5.466674 -1.920003,0 -2.960004,-1.920003 -2.960004,-5.440007 0,-3.626671 1.013335,-5.49334 3.013337,-5.49334 1.866669,0 2.90667,1.946669 2.90667,5.466673 z m 18.479975,6.213341 v -1.146668 h -0.48 c -1.440002,0 -1.653336,-0.266667 -1.653336,-1.946669 V 9.2294073 L 55.591445,9.522741 v 1.146668 h 1.573335 c 0.960001,0 1.146668,0.186667 1.146668,1.333335 v 6.026674 c -0.986668,-1.360001 -2.133336,-1.973335 -3.680004,-1.973335 -3.013337,0 -5.306674,2.90667 -5.306674,6.746675 0,3.786671 2.213336,6.480008 5.306674,6.480008 1.680002,0 2.82667,-0.720001 3.680004,-2.320003 v 2.106669 z m -4.666672,-6.160007 c 0,3.093337 -1.226669,5.120006 -3.146671,5.120006 -1.866669,0 -3.013337,-1.760002 -3.013337,-4.720006 0,-1.573335 0.16,-2.773337 0.506667,-3.680004 0.453334,-1.173335 1.440002,-1.94667 2.533337,-1.94667 1.093334,0 2.133336,0.800001 2.613336,2.02667 0.320001,0.800001 0.506668,1.920002 0.506668,3.200004 z"
           id="path2" />
        <path
           style="font-size:26.6667px;font-family:'TeX Gyre Schola Math';-inkscape-font-specification:'TeX Gyre Schola Math';text-anchor:middle"
           d="m 36.978183,51.570767 v -1.253335 h -0.480001 c -2.160003,0 -2.400003,-0.106667 -2.400003,-1.253335 V 34.824079 c 0,-1.120001 0.24,-1.253335 2.400003,-1.253335 h 0.480001 V 32.317409 H 30.284841 L 25.404835,46.530761 20.284828,32.317409 H 13.40482 v 1.253335 h 0.506667 c 2.160003,0 2.400003,0.133334 2.400003,1.253335 V 45.81076 c 0,3.626671 -0.533334,4.400005 -3.093337,4.506672 v 1.253335 h 7.600009 v -1.253335 c -2.533336,-0.106667 -3.06667,-0.880001 -3.06667,-4.506672 V 34.024078 l 6.346674,17.546689 h 1.066668 l 5.946675,-17.546689 v 15.040019 c 0,1.146668 -0.240001,1.253335 -2.400003,1.253335 h -0.480001 v 1.253335 z m 8.533299,0 v -0.960001 h -0.32 c -1.733336,0 -1.893336,-0.186667 -1.893336,-1.253335 V 39.144085 l -5.013339,0.293333 v 1.146669 h 1.360001 c 0.986668,0 1.146668,0.213333 1.146668,1.333335 v 7.440009 c 0,1.066668 -0.16,1.253335 -1.866669,1.253335 h -0.32 v 0.960001 z M 43.378146,35.30408 c 0,-0.720001 -0.613334,-1.333335 -1.333335,-1.333335 -0.720001,0 -1.333335,0.613334 -1.333335,1.333335 0,0.720001 0.613334,1.333335 1.306669,1.333335 0.746667,0 1.360001,-0.586668 1.360001,-1.333335 z m 16.933319,16.266687 v -0.960001 h -0.373333 c -0.933335,0 -1.440002,-0.373334 -2.133337,-1.306668 l -3.360004,-4.53334 3.040004,-3.546671 c 0.640001,-0.746667 1.146668,-1.120001 1.840002,-1.120001 h 0.400001 v -0.960001 h -5.520007 v 0.960001 h 0.506667 c 0.800001,0 1.200002,0.213334 1.200002,0.586667 0,0.266667 -0.186667,0.666668 -0.533334,1.093335 l -1.680002,2.000003 -2.053336,-2.613337 c -0.16,-0.186667 -0.266667,-0.426667 -0.266667,-0.586667 0,-0.346668 0.293333,-0.480001 1.120001,-0.480001 h 0.426667 v -0.960001 h -6.320008 v 0.960001 c 0.986668,0.08 1.333335,0.32 2.213336,1.440002 l 3.253338,4.106672 -3.066671,3.573337 c -0.746667,0.880002 -1.360001,1.386669 -2.133336,1.386669 h -0.426667 v 0.960001 h 5.626674 v -0.960001 h -0.400001 c -1.146668,0 -1.306668,-0.266667 -1.306668,-0.720001 0,-0.186667 0.08,-0.426667 0.213334,-0.560001 l 2.240003,-2.693337 2.026669,2.693337 c 0.186667,0.266667 0.346667,0.613334 0.346667,0.800001 0,0.346667 -0.24,0.480001 -1.253335,0.480001 h -0.346667 v 0.960001 z"
           id="path3" />
      </g>
    </g>
    <path
       style="font-size:2.82222px;font-family:'TeX Gyre Schola Math';-inkscape-font-specification:'TeX Gyre Schola Math';letter-spacing:0px;white-space:pre;inline-size:21.6356;fill:#004021;stroke-width:0.295463"
       d="m 5.4213913,124.76896 v -0.11345 h -0.595653 v 0.11345 h 0.05358 c 0.110306,0 0.154428,0.0347 0.154428,0.11346 0,0.0315 -0.01261,0.0788 -0.02521,0.11661 l -0.267886,0.71857 -0.308857,-0.80997 c -0.0095,-0.0221 -0.01261,-0.0378 -0.01261,-0.0662 0,-0.0567 0.02836,-0.0725 0.132367,-0.0725 h 0.07564 v -0.11345 h -0.70596 v 0.11345 h 0.05358 c 0.100851,0 0.132368,0.0252 0.163884,0.11661 l 0.02836,0.0819 -0.277342,0.73432 -0.305706,-0.79105 c -0.0063,-0.0221 -0.01261,-0.0504 -0.01261,-0.0693 0,-0.0536 0.03467,-0.0725 0.129216,-0.0725 h 0.05673 v -0.11345 h -0.693353 v 0.11345 h 0.05673 c 0.08825,0 0.119761,0.0284 0.163883,0.15443 l 0.472741,1.24804 h 0.110306 l 0.375041,-0.99591 0.384496,0.99591 h 0.0977 l 0.441224,-1.16294 c 0.06934,-0.18595 0.104003,-0.23953 0.214309,-0.23953 z m 0.958087,1.35519 v -0.11345 h -0.03782 c -0.204854,0 -0.223764,-0.0221 -0.223764,-0.14813 v -1.20706 l -0.592501,0.0347 v 0.13552 h 0.160732 c 0.116609,0 0.135519,0.0252 0.135519,0.15758 v 0.8793 c 0,0.12607 -0.01891,0.14813 -0.220613,0.14813 h -0.03782 v 0.11345 z m -0.252128,-1.92247 c 0,-0.0851 -0.07249,-0.15758 -0.157581,-0.15758 -0.08509,0 -0.15758,0.0725 -0.15758,0.15758 0,0.0851 0.07249,0.15758 0.154429,0.15758 0.08824,0 0.160732,-0.0693 0.160732,-0.15758 z m 1.238576,1.92247 v -0.11345 h -0.05358 c -0.204854,0 -0.208006,-0.0221 -0.208006,-0.14813 v -2.06115 l -0.583047,0.0347 v 0.13552 h 0.154429 c 0.113457,0 0.132367,0.0221 0.132367,0.15758 v 1.73338 c 0,0.12606 -0.0031,0.14813 -0.204854,0.14813 h -0.05358 v 0.11345 z m 1.834229,0 v -0.13551 h -0.05673 c -0.170187,0 -0.195399,-0.0315 -0.195399,-0.23007 v -1.95715 l -0.617715,0.0347 v 0.13552 h 0.185945 c 0.113457,0 0.135519,0.0221 0.135519,0.15758 v 0.71226 c -0.11661,-0.16073 -0.252128,-0.23322 -0.434922,-0.23322 -0.356131,0 -0.627169,0.34353 -0.627169,0.79736 0,0.44753 0.261583,0.76584 0.627169,0.76584 0.198551,0 0.33407,-0.0851 0.434922,-0.27419 v 0.24898 z m -0.551531,-0.72802 c 0,0.36559 -0.144974,0.60511 -0.371889,0.60511 -0.220612,0 -0.356131,-0.208 -0.356131,-0.55783 0,-0.18595 0.01891,-0.32777 0.05988,-0.43492 0.05358,-0.13867 0.170186,-0.23007 0.299402,-0.23007 0.129216,0 0.252128,0.0945 0.308857,0.23952 0.03782,0.0945 0.05988,0.22692 0.05988,0.37819 z m 2.0800567,0.32777 -0.110306,-0.0599 c -0.129216,0.24267 -0.261583,0.33722 -0.472741,0.33722 -0.2615827,0 -0.4380727,-0.18909 -0.4380727,-0.5862 h 1.0211197 c 0,-0.47274 -0.261583,-0.80681 -0.64923,-0.80681 -0.4034057,0 -0.7059597,0.34983 -0.7059597,0.82257 0,0.44123 0.286796,0.74063 0.7122627,0.74063 0.299402,0 0.513711,-0.14813 0.642927,-0.44753 z m -0.337221,-0.56099 c 0,0.0914 -0.02837,0.11661 -0.129216,0.11661 H 9.7107133 c 0,-0.33722 0.170187,-0.53577 0.3624347,-0.53577 0.192247,0 0.318312,0.16704 0.318312,0.41916 z m 1.818469,-0.30255 c 0,-0.15128 -0.107154,-0.25213 -0.274189,-0.25213 -0.198551,0 -0.37189,0.16073 -0.472741,0.43808 v -0.3908 l -0.557834,0.0347 v 0.13552 h 0.129216 c 0.116609,0 0.135519,0.0221 0.135519,0.15758 v 0.8793 c 0,0.12606 -0.0031,0.14813 -0.208006,0.14813 h -0.04412 v 0.11345 h 0.841478 v -0.11345 h -0.05988 c -0.201703,0 -0.23637,-0.0221 -0.23637,-0.14813 v -0.15758 c 0,-0.23637 0.04412,-0.47589 0.122912,-0.65553 0.07564,-0.17649 0.182793,-0.27419 0.315161,-0.28995 -0.04412,0.0504 -0.05673,0.0819 -0.05673,0.14182 0,0.10085 0.07249,0.17334 0.173338,0.17334 0.113458,0 0.192248,-0.0851 0.192247,-0.21431 z m 1.73653,-0.11346 c 0,-0.10715 -0.08509,-0.18279 -0.208007,-0.18279 -0.100851,0 -0.15758,0.0315 -0.302554,0.16388 -0.132367,-0.0882 -0.233218,-0.11976 -0.390799,-0.11976 -0.375041,0 -0.620866,0.20801 -0.620866,0.52317 0,0.18594 0.100852,0.34668 0.264735,0.42231 -0.211157,0.0473 -0.299402,0.14183 -0.299402,0.31516 0,0.13867 0.06303,0.22062 0.211157,0.27104 -0.195399,0.0693 -0.289947,0.17019 -0.289947,0.2994 0,0.20801 0.242673,0.32462 0.664988,0.32462 0.526318,0 0.791053,-0.16704 0.791053,-0.49795 0,-0.15758 -0.07249,-0.28365 -0.189097,-0.33092 -0.08194,-0.0315 -0.182792,-0.0441 -0.400253,-0.0441 h -0.321464 c -0.173338,0 -0.182793,-0.009 -0.220612,-0.0284 -0.02206,-0.0126 -0.03782,-0.0473 -0.03782,-0.0819 0,-0.0945 0.08509,-0.13552 0.296251,-0.14182 0.299402,-0.006 0.346676,-0.0126 0.450679,-0.0599 0.189097,-0.0851 0.296251,-0.24898 0.296251,-0.45699 0,-0.12606 -0.02836,-0.20485 -0.116609,-0.30885 0.05358,-0.0567 0.08194,-0.0756 0.107155,-0.0756 0.03467,0 0.03782,0.16073 0.173338,0.16073 0.0788,0 0.141823,-0.0662 0.141823,-0.15128 z m -0.595654,0.3782 c 0,0.24582 -0.119761,0.39395 -0.321464,0.39395 -0.195399,0 -0.318312,-0.14813 -0.318312,-0.3845 0,-0.24898 0.119761,-0.3908 0.330919,-0.3908 0.198551,0 0.308857,0.13867 0.308857,0.38135 z m 0.195399,1.22597 c 0,0.17964 -0.204854,0.28364 -0.557833,0.28364 -0.264735,0 -0.416012,-0.0788 -0.416012,-0.22061 0,-0.104 0.05673,-0.17334 0.208006,-0.25213 h 0.233218 c 0.261584,0 0.280493,0 0.327767,0.006 0.126064,0.0126 0.204854,0.0819 0.204854,0.18279 z m 2.095813,-0.38765 c 0,-0.0221 -0.01576,-0.0378 -0.03151,-0.0378 -0.04412,0 -0.116609,0.0347 -0.135518,0.0347 -0.08824,0 -0.119762,-0.0599 -0.119762,-0.21746 v -0.63347 c 0,-0.40341 -0.223763,-0.50111 -0.586197,-0.50111 -0.35298,0 -0.614563,0.16704 -0.614563,0.39395 0,0.11976 0.07249,0.1954 0.182792,0.1954 0.0977,0 0.170187,-0.0662 0.170187,-0.16073 0,-0.0567 -0.06934,-0.15443 -0.06934,-0.17019 0,-0.0662 0.129216,-0.12291 0.280493,-0.12291 0.211158,0 0.340374,0.0693 0.340374,0.34668 v 0.12291 c -0.734325,0.12606 -0.989604,0.28049 -0.989604,0.58935 0,0.22376 0.179641,0.36874 0.456983,0.36874 0.217461,0 0.412859,-0.0883 0.548379,-0.24898 0.05042,0.16073 0.129216,0.22377 0.277341,0.22377 0.141822,0 0.289947,-0.0914 0.289947,-0.1828 z m -0.583046,-0.46959 c 0,0.1891 -0.0095,0.23322 -0.06304,0.31516 -0.0788,0.11661 -0.223764,0.1954 -0.359283,0.1954 -0.141823,0 -0.248977,-0.104 -0.248977,-0.24582 0,-0.22377 0.126065,-0.31831 0.671292,-0.40971 z m 1.994964,-0.63347 c 0,-0.15128 -0.10716,-0.25213 -0.27419,-0.25213 -0.198551,0 -0.371889,0.16073 -0.47274,0.43808 v -0.3908 l -0.557834,0.0347 v 0.13552 h 0.129216 c 0.11661,0 0.135519,0.0221 0.135519,0.15758 v 0.8793 c 0,0.12607 -0.0031,0.14813 -0.208006,0.14813 h -0.04412 v 0.11345 h 0.841478 v -0.11345 h -0.05988 c -0.201703,0 -0.236371,-0.0221 -0.236371,-0.14813 v -0.15758 c 0,-0.23637 0.04412,-0.47589 0.122913,-0.65553 0.07564,-0.17649 0.182794,-0.27419 0.315161,-0.28995 -0.04412,0.0504 -0.05673,0.0819 -0.05673,0.14182 0,0.10085 0.07249,0.17334 0.173338,0.17334 0.113458,0 0.192247,-0.0851 0.192247,-0.21431 z m 1.774348,1.26379 v -0.13551 h -0.05673 c -0.170187,0 -0.1954,-0.0315 -0.1954,-0.23007 v -1.95715 l -0.617715,0.0347 v 0.13552 h 0.185945 c 0.113458,0 0.13552,0.0221 0.13552,0.15758 v 0.71226 c -0.116609,-0.16073 -0.252129,-0.23322 -0.434922,-0.23322 -0.356132,0 -0.627169,0.34353 -0.627169,0.79736 0,0.44753 0.261583,0.76584 0.627169,0.76584 0.198551,0 0.33407,-0.0851 0.434922,-0.27419 v 0.24898 z m -0.551531,-0.72802 c 0,0.36559 -0.144974,0.60511 -0.371889,0.60511 -0.220613,0 -0.356131,-0.208 -0.356131,-0.55783 0,-0.18595 0.01891,-0.32777 0.05988,-0.43492 0.05358,-0.13867 0.170186,-0.23007 0.299402,-0.23007 0.129216,0 0.252128,0.0945 0.308857,0.23952 0.03782,0.0945 0.05988,0.22692 0.05988,0.37819 z m 2.080058,0.32777 -0.110309,-0.0599 c -0.129216,0.24267 -0.261583,0.33722 -0.472741,0.33722 -0.261582,0 -0.438073,-0.18909 -0.438073,-0.5862 h 1.021121 c 0,-0.47274 -0.261584,-0.80681 -0.649232,-0.80681 -0.403405,0 -0.705959,0.34983 -0.705959,0.82257 0,0.44123 0.286796,0.74063 0.712263,0.74063 0.299403,0 0.513712,-0.14813 0.642928,-0.44753 z m -0.337222,-0.56099 c 0,0.0914 -0.02836,0.11661 -0.129216,0.11661 h -0.55153 c 0,-0.33722 0.170185,-0.53577 0.362434,-0.53577 0.192247,0 0.318312,0.16704 0.318312,0.41916 z m 2.316422,0.96124 v -0.11345 h -0.04412 c -0.201703,0 -0.204854,-0.0221 -0.204854,-0.14813 v -0.62087 c 0,-0.22691 -0.0095,-0.28364 -0.06619,-0.39079 -0.0788,-0.15128 -0.239523,-0.24268 -0.425467,-0.24268 -0.201703,0 -0.359283,0.0946 -0.497954,0.30256 v -0.25528 l -0.545227,0.0347 v 0.13552 h 0.113457 c 0.11661,0 0.13552,0.0221 0.13552,0.15758 v 0.8793 c 0,0.12606 -0.0031,0.14813 -0.204855,0.14813 H 20.5522 v 0.11345 h 0.797356 v -0.11345 h -0.04412 c -0.204854,0 -0.208007,-0.0221 -0.208007,-0.14813 v -0.45383 c 0,-0.15443 0.02207,-0.29625 0.05673,-0.36874 0.06619,-0.14182 0.208007,-0.23952 0.343525,-0.23952 0.08194,0 0.176491,0.0473 0.223764,0.11031 0.04727,0.0662 0.06934,0.16388 0.06934,0.31516 v 0.63662 c 0,0.12607 -0.0031,0.14813 -0.208006,0.14813 h -0.04412 v 0.11345 z"
       id="text2-7"
       aria-label="wildergarden" />
    <g
       id="g8"
       transform="translate(-0.7097726,0.61830233)"
       style="stroke-width:0.6;stroke-dasharray:none;paint-order:stroke fill markers">
      <path
         style="fill:none;fill-opacity:1;stroke:#000000;stroke-width:0.6;stroke-linecap:round;stroke-linejoin:round;stroke-dasharray:none;stroke-opacity:1;paint-order:stroke fill markers"
         d="m 6.4937209,86.182009 2.054199,-2.054199 2.0542021,2.054202 2.054201,-2.054202"
         id="path7" />
      <path
         style="fill:none;fill-opacity:1;stroke:#000000;stroke-width:0.6;stroke-linecap:round;stroke-linejoin:round;stroke-dasharray:none;stroke-opacity:1;paint-order:stroke fill markers"
         d="m 6.4937208,82.274246 2.054199,-2.054199 v 2.054202 l 2.0542022,-2.054202 v 2.054202 l 2.054201,-2.054202"
         id="path8" />
    </g>
    <rect
       style="fill:#003920;fill-opacity:1;stroke:#00351b;stroke-width:0.215971;stroke-linejoin:round;stroke-dasharray:none;stroke-opacity:1"
       id="rect9-3"
       width="21.184031"
       height="14.941119"
       x="2.1079855"
       y="107.13097"
       sodipodi:type="rect"
       ry="1.1543913" />
    <path
       style="font-size:4.23333px;font-family:'TeX Gyre Cursor';-inkscape-font-specification:'TeX Gyre Cursor';text-align:center;letter-spacing:-0.298979px;text-anchor:middle;fill:#ffffff;stroke-width:0.424;stroke-linejoin:round;paint-order:stroke fill markers"
       d="m 5.0259124,119.72032 c 0,-0.055 -0.0381,-0.0847 -0.1143,-0.0847 H 4.7676792 v -1.07526 c 0,-0.32597 -0.2878664,-0.57574 -0.6646327,-0.57574 -0.2624665,0 -0.4148664,0.0804 -0.6603995,0.35137 v -0.2921 H 3.1251473 c -0.0762,0 -0.1142999,0.0296 -0.1142999,0.0847 0,0.0593 0.0381,0.0889 0.1142999,0.0889 h 0.1439332 v 1.41816 H 3.0785807 c -0.080433,0 -0.1185333,0.0296 -0.1185333,0.0847 0,0.0593 0.0381,0.0889 0.1185333,0.0889 h 0.5545662 c 0.0762,0 0.1142999,-0.0296 0.1142999,-0.0889 0,-0.055 -0.0381,-0.0847 -0.1142999,-0.0847 H 3.442647 v -1.07103 c 0.1904999,-0.254 0.3132664,-0.4064 0.6434661,-0.4064 0.2624665,0 0.5079996,0.16087 0.5079996,0.4318 v 1.04563 H 4.4501795 c -0.0762,0 -0.1142999,0.0296 -0.1142999,0.0847 0,0.0593 0.0381,0.0889 0.1142999,0.0889 h 0.4614329 c 0.0762,0 0.1143,-0.0296 0.1143,-0.0889 z m 2.185979,-0.77893 c 0,-0.53764 -0.423333,-0.95674 -0.9651992,-0.95674 -0.5376329,0 -0.9651992,0.42334 -0.9651992,0.94404 0,0.52916 0.4275663,0.94826 0.9651992,0.94826 0.5333996,0 0.9651992,-0.4191 0.9651992,-0.93556 z m -0.1735665,0 c 0,0.4191 -0.3555997,0.762 -0.7916327,0.762 -0.4402663,0 -0.7916327,-0.3429 -0.7916327,-0.7747 0,-0.42757 0.3513664,-0.77047 0.7916327,-0.77047 0.4444996,0 0.7916327,0.33867 0.7916327,0.78317 z m 2.4696121,-0.67734 c 0,-0.0381 -0.0254,-0.072 -0.097367,-0.13123 -0.1100665,-0.0931 -0.2031998,-0.13123 -0.3259664,-0.13123 -0.2158998,0 -0.4233329,0.11853 -0.8170326,0.47413 v -0.4318 H 7.7765051 c -0.071967,0 -0.1142999,0.0339 -0.1142999,0.0847 0,0.055 0.042333,0.0889 0.1142999,0.0889 h 0.3174998 v 1.41816 H 7.6876052 c -0.071967,0 -0.1142999,0.0339 -0.1142999,0.0847 0,0.055 0.042333,0.0889 0.1142999,0.0889 h 1.3377322 c 0.071967,0 0.1142999,-0.0339 0.1142999,-0.0847 0,-0.055 -0.042333,-0.0889 -0.1142999,-0.0889 h -0.757766 v -0.93556 c 0.4656663,-0.42757 0.6138328,-0.52494 0.8043327,-0.52494 0.093133,0 0.1777998,0.0466 0.2793997,0.14394 0.029633,0.0296 0.0381,0.0339 0.067733,0.0339 0.0508,0 0.0889,-0.0381 0.0889,-0.0889 z m 2.461146,1.45627 c 0,-0.055 -0.0381,-0.0847 -0.1143,-0.0847 H 11.71085 v -1.1938 c 0,-0.24976 -0.198967,-0.4572 -0.4445,-0.4572 -0.173567,0 -0.313266,0.0889 -0.478366,0.30057 -0.09313,-0.2032 -0.2286,-0.30057 -0.410633,-0.30057 -0.1778,0 -0.300567,0.0762 -0.4444999,0.2794 v -0.22013 H 9.6195847 c -0.0762,0 -0.1142999,0.0296 -0.1142999,0.0847 0,0.0593 0.0381,0.0889 0.1142999,0.0889 h 0.1439332 v 1.41816 H 9.6195847 c -0.0762,0 -0.1142999,0.0296 -0.1142999,0.0847 0,0.0593 0.0381,0.0889 0.1100666,0.0889 h 0.4614326 c 0.07197,0 0.1143,-0.0296 0.1143,-0.0889 0,-0.055 -0.0381,-0.0847 -0.1143,-0.0847 H 9.9328511 v -1.1303 c 0.1608669,-0.2413 0.2963329,-0.34713 0.4444999,-0.34713 0.143933,0 0.275166,0.14817 0.275166,0.31327 v 1.33773 h 0.313267 c 0.0762,0 0.114299,-0.0296 0.114299,-0.0889 0,-0.055 -0.0381,-0.0847 -0.114299,-0.0847 H 10.82185 v -1.1303 c 0.160867,-0.24553 0.287867,-0.34713 0.440267,-0.34713 0.148166,0 0.279399,0.1397 0.279399,0.30057 v 1.35043 h 0.313267 c 0.0762,0 0.1143,-0.0296 0.1143,-0.0889 z"
       id="text4-1"
       aria-label="norm&#10;" />
    <path
       style="fill:none;stroke:#002f00;stroke-width:1.6;stroke-linecap:round;stroke-linejoin:round;stroke-dasharray:none;stroke-opacity:0.54913;paint-order:stroke fill markers"
       d="M 7.4645651,56.817904 V 74.672443"
       id="path4" />
    <path
       style="fill:none;stroke:#002f00;stroke-width:1.6;stroke-linecap:round;stroke-linejoin:round;stroke-dasharray:none;stroke-opacity:0.54913;paint-order:stroke fill markers"
       d="M 17.97401,56.817904 V 74.672443"
       id="path5" />
  </g>
  <g
     inkscape:groupmode="layer"
     id="layer2"
     inkscape:label="components"
     style="display:none">
    <ellipse
       style="fill:#00ff00;fill-opacity:1;stroke-width:0.493479;stroke-linejoin:round;paint-order:stroke fill markers"
       id="path1"
       cx="7.4693542"
       cy="27.317553"
       rx="5.2499332"
       ry="2.228173"
       inkscape:label="in 1" />
    <ellipse
       style="fill:#00ff00;fill-opacity:1;stroke-width:0.493478;stroke-linejoin:round;paint-order:stroke fill markers"
       id="path1-2"
       cx="17.969219"
       cy="27.317553"
       rx="5.2499337"
       ry="2.228173"
       inkscape:label="in 2" />
    <ellipse
       style="fill:#0000ff;fill-opacity:1;stroke-width:0.467743;stroke-linejoin:round;paint-order:stroke fill markers"
       id="path1-5"
       cx="7.4645653"
       cy="112.94838"
       rx="5.2547221"
       ry="2"
       inkscape:label="norm out" />
    <ellipse
       style="fill:#0000ff;fill-opacity:1;stroke-width:0.467742;stroke-linejoin:round;paint-order:stroke fill markers"
       id="path1-2-6"
       cx="17.974009"
       cy="112.94838"
       rx="5.2547226"
       ry="2"
       inkscape:label="out" />
    <ellipse
       style="display:inline;fill:#ff00ff;fill-opacity:1;stroke-width:0.424;stroke-linejoin:round;paint-order:stroke fill markers"
       id="path3-9-7-5-7-9-4"
       cx="20.609919"
       cy="119.3749"
       rx="1.312567"
       ry="1.3278294"
       inkscape:label="out indicator" />
    <ellipse
       style="display:inline;fill:#ff00ff;fill-opacity:1;stroke-width:0.424;stroke-linejoin:round;paint-order:stroke fill markers"
       id="path3-9-7-5-7-9-4-2"
       cx="12.699999"
       cy="101.87255"
       rx="1.312567"
       ry="1.3278294"
       inkscape:label="norm indicator" />
    <ellipse
       style="fill:#00ff00;fill-opacity:1;stroke-width:0.493479;stroke-linejoin:round;paint-order:stroke fill markers"
       id="path1-4"
       cx="7.4693542"
       cy="36.256844"
       rx="5.2499332"
       ry="2.228173"
       inkscape:label="in 3" />
    <ellipse
       style="fill:#00ff00;fill-opacity:1;stroke-width:0.467743;stroke-linejoin:round;paint-order:stroke fill markers"
       id="path1-4-3"
       cx="7.4645653"
       cy="74.372444"
       rx="5.2547221"
       ry="2" />
    <ellipse
       style="fill:#00ff00;fill-opacity:1;stroke-width:0.467743;stroke-linejoin:round;paint-order:stroke fill markers"
       id="path1-4-3-8"
       cx="17.97401"
       cy="74.372444"
       rx="5.2547221"
       ry="2"
       inkscape:label="high cv" />
    <ellipse
       style="fill:#ff0000;fill-opacity:1;stroke-width:0.467743;stroke-linejoin:round;paint-order:stroke fill markers"
       id="path1-4-3-0"
       cx="7.4452772"
       cy="98.814217"
       rx="5.2547221"
       ry="2"
       inkscape:label="norm level" />
    <ellipse
       style="fill:#00ff00;fill-opacity:1;stroke-width:0.467743;stroke-linejoin:round;paint-order:stroke fill markers"
       id="path1-4-3-8-9"
       cx="17.954721"
       cy="98.814217"
       rx="5.2547221"
       ry="2"
       inkscape:label="norm level" />
    <ellipse
       style="fill:#ff0000;fill-opacity:1;stroke-width:0.493478;stroke-linejoin:round;paint-order:stroke fill markers"
       id="path1-2-5"
       cx="17.969221"
       cy="36.256844"
       rx="5.2499337"
       ry="2.228173"
       inkscape:label="in 4" />
    <ellipse
       style="fill:#ff0000;fill-opacity:1;stroke-width:0.467742;stroke-linejoin:round;paint-order:stroke fill markers"
       id="path1-2-5-3"
       cx="7.4645653"
       cy="56.517906"
       rx="5.2547226"
       ry="2"
       inkscape:label="low" />
    <ellipse
       style="fill:#ff0000;fill-opacity:1;stroke-width:0.467742;stroke-linejoin:round;paint-order:stroke fill markers"
       id="path1-2-5-3-5"
       cx="17.97401"
       cy="56.517906"
       rx="5.2547226"
       ry="2"
       inkscape:label="high" />
    <ellipse
       style="fill:#ff0000;fill-opacity:1;stroke-width:0.467742;stroke-linejoin:round;paint-order:stroke fill markers"
       id="path1-2-5-3-4"
       cx="7.4645653"
       cy="65.974342"
       rx="5.2547226"
       ry="2"
       inkscape:label="low trim" />
    <ellipse
       style="fill:#ff0000;fill-opacity:1;stroke-width:0.599083;stroke-linejoin:round;paint-order:stroke fill markers"
       id="path1-2-5-3-4-5"
       cx="12.7"
       cy="85.467606"
       rx="10.490157"
       ry="1.6434574"
       inkscape:label="saw square selector" />
    <ellipse
       style="fill:#ff0000;fill-opacity:1;stroke-width:0.467742;stroke-linejoin:round;paint-order:stroke fill markers"
       id="path1-2-5-3-5-9"
       cx="17.974007"
       cy="65.974342"
       rx="5.2547226"
       ry="2"
       inkscape:label="high trim" />
  </g>
</svg>
