<?xml version="1.0" encoding="UTF-8" standalone="no"?>
<!-- Created with Inkscape (http://www.inkscape.org/) -->

<svg
   width="50.799999mm"
   height="128.5mm"
   viewBox="0 0 50.8 128.5"
   version="1.1"
   id="svg1"
   inkscape:version="1.4 (1:1.4+202410161351+e7c3feb100)"
   sodipodi:docname="The Chatter.svg"
   xmlns:inkscape="http://www.inkscape.org/namespaces/inkscape"
   xmlns:sodipodi="http://sodipodi.sourceforge.net/DTD/sodipodi-0.dtd"
   xmlns:xlink="http://www.w3.org/1999/xlink"
   xmlns="http://www.w3.org/2000/svg"
   xmlns:svg="http://www.w3.org/2000/svg">
  <sodipodi:namedview
     id="namedview1"
     pagecolor="#ffffff"
     bordercolor="#000000"
     borderopacity="0.25"
     inkscape:showpageshadow="2"
     inkscape:pageopacity="0.0"
     inkscape:pagecheckerboard="0"
     inkscape:deskcolor="#d1d1d1"
     inkscape:document-units="mm"
     inkscape:zoom="1.0834765"
     inkscape:cx="-77.528219"
     inkscape:cy="221.97067"
     inkscape:window-width="1920"
     inkscape:window-height="1016"
     inkscape:window-x="1920"
     inkscape:window-y="27"
     inkscape:window-maximized="1"
     inkscape:current-layer="layer1"
     showgrid="false" />
  <defs
     id="defs1">
    <rect
       x="8.916182"
       y="7.6351088"
       width="173.95635"
       height="60.66356"
       id="rect2" />
    <linearGradient
       xlink:href="#linearGradient1"
       id="linearGradient2"
       x1="11.075537"
       y1="6.1155901"
       x2="11.075537"
       y2="116.52498"
       gradientUnits="userSpaceOnUse"
       gradientTransform="matrix(2.5,0,0,1,-0.91553584,5.1452634e-8)" />
    <linearGradient
       id="linearGradient1">
      <stop
         style="stop-color:#eee8d9;stop-opacity:1;"
         offset="0"
         id="stop1" />
      <stop
         style="stop-color:#d0d0d0;stop-opacity:1;"
         offset="1"
         id="stop2" />
    </linearGradient>
  </defs>
  <g
     inkscape:label="Layer 1"
     inkscape:groupmode="layer"
     id="layer1">
    <rect
       style="fill:url(#linearGradient2);stroke:none;stroke-width:0.474342;stroke-linejoin:round;stroke-dasharray:none;stroke-opacity:1;paint-order:stroke fill markers"
       id="rect1"
       width="50.799999"
       height="128.5"
       x="1.6689301e-06"
       y="-1.7763568e-15" />
    <rect
       style="fill:none;fill-opacity:1;stroke:#000000;stroke-width:0.118293;stroke-linejoin:round;stroke-dasharray:none;stroke-opacity:0.0637355;paint-order:stroke fill markers"
       id="rect2-0"
       width="46.081707"
       height="120.07414"
       x="2.3591468"
       y="2.0201962" />
    <path
       style="font-size:2.82222px;font-family:'TeX Gyre Schola Math';-inkscape-font-specification:'TeX Gyre Schola Math';letter-spacing:0px;white-space:pre;inline-size:21.6356;fill:#004021;stroke-width:0.295463"
       d="m 18.121391,124.62998 v -0.11345 h -0.595653 v 0.11345 h 0.05358 c 0.110306,0 0.154428,0.0347 0.154428,0.11346 0,0.0315 -0.01261,0.0788 -0.02521,0.11661 l -0.267886,0.71857 -0.308857,-0.80997 c -0.0095,-0.0221 -0.01261,-0.0378 -0.01261,-0.0662 0,-0.0567 0.02836,-0.0725 0.132367,-0.0725 h 0.07564 v -0.11345 h -0.70596 v 0.11345 h 0.05358 c 0.100851,0 0.132368,0.0252 0.163884,0.11661 l 0.02836,0.0819 -0.277342,0.73432 -0.305706,-0.79105 c -0.0063,-0.0221 -0.01261,-0.0504 -0.01261,-0.0693 0,-0.0536 0.03467,-0.0725 0.129216,-0.0725 h 0.05673 v -0.11345 h -0.693353 v 0.11345 h 0.05673 c 0.08825,0 0.119761,0.0284 0.163883,0.15443 l 0.472741,1.24804 h 0.110306 l 0.375041,-0.99591 0.384496,0.99591 h 0.0977 l 0.441224,-1.16294 c 0.06934,-0.18595 0.104003,-0.23953 0.214309,-0.23953 z m 0.958087,1.35519 v -0.11345 h -0.03782 c -0.204854,0 -0.223764,-0.0221 -0.223764,-0.14813 v -1.20706 l -0.592501,0.0347 v 0.13552 h 0.160732 c 0.116609,0 0.135519,0.0252 0.135519,0.15758 v 0.8793 c 0,0.12607 -0.01891,0.14813 -0.220613,0.14813 h -0.03782 v 0.11345 z M 18.82735,124.0627 c 0,-0.0851 -0.07249,-0.15758 -0.157581,-0.15758 -0.08509,0 -0.15758,0.0725 -0.15758,0.15758 0,0.0851 0.07249,0.15758 0.154429,0.15758 0.08824,0 0.160732,-0.0693 0.160732,-0.15758 z m 1.238576,1.92247 v -0.11345 h -0.05358 c -0.204854,0 -0.208006,-0.0221 -0.208006,-0.14813 v -2.06115 l -0.583047,0.0347 v 0.13552 h 0.154429 c 0.113457,0 0.132367,0.0221 0.132367,0.15758 v 1.73338 c 0,0.12606 -0.0031,0.14813 -0.204854,0.14813 h -0.05358 v 0.11345 z m 1.834229,0 v -0.13551 h -0.05673 c -0.170187,0 -0.195399,-0.0315 -0.195399,-0.23007 v -1.95715 l -0.617715,0.0347 v 0.13552 h 0.185945 c 0.113457,0 0.135519,0.0221 0.135519,0.15758 v 0.71226 c -0.11661,-0.16073 -0.252128,-0.23322 -0.434922,-0.23322 -0.356131,0 -0.627169,0.34353 -0.627169,0.79736 0,0.44753 0.261583,0.76584 0.627169,0.76584 0.198551,0 0.33407,-0.0851 0.434922,-0.27419 v 0.24898 z m -0.551531,-0.72802 c 0,0.36559 -0.144974,0.60511 -0.371889,0.60511 -0.220612,0 -0.356131,-0.208 -0.356131,-0.55783 0,-0.18595 0.01891,-0.32777 0.05988,-0.43492 0.05358,-0.13867 0.170186,-0.23007 0.299402,-0.23007 0.129216,0 0.252128,0.0945 0.308857,0.23952 0.03782,0.0945 0.05988,0.22692 0.05988,0.37819 z m 2.080057,0.32777 -0.110306,-0.0599 c -0.129216,0.24267 -0.261583,0.33722 -0.472741,0.33722 -0.261583,0 -0.438073,-0.18909 -0.438073,-0.5862 h 1.02112 c 0,-0.47274 -0.261583,-0.80681 -0.64923,-0.80681 -0.403406,0 -0.70596,0.34983 -0.70596,0.82257 0,0.44123 0.286796,0.74063 0.712263,0.74063 0.299402,0 0.513711,-0.14813 0.642927,-0.44753 z m -0.337221,-0.56099 c 0,0.0914 -0.02837,0.11661 -0.129216,0.11661 h -0.551531 c 0,-0.33722 0.170187,-0.53577 0.362435,-0.53577 0.192247,0 0.318312,0.16704 0.318312,0.41916 z m 1.818469,-0.30255 c 0,-0.15128 -0.107154,-0.25213 -0.274189,-0.25213 -0.198551,0 -0.37189,0.16073 -0.472741,0.43808 v -0.3908 l -0.557834,0.0347 v 0.13552 h 0.129216 c 0.116609,0 0.135519,0.0221 0.135519,0.15758 v 0.8793 c 0,0.12606 -0.0031,0.14813 -0.208006,0.14813 h -0.04412 v 0.11345 h 0.841478 v -0.11345 h -0.05988 c -0.201703,0 -0.23637,-0.0221 -0.23637,-0.14813 v -0.15758 c 0,-0.23637 0.04412,-0.47589 0.122912,-0.65553 0.07564,-0.17649 0.182793,-0.27419 0.315161,-0.28995 -0.04412,0.0504 -0.05673,0.0819 -0.05673,0.14182 0,0.10085 0.07249,0.17334 0.173338,0.17334 0.113458,0 0.192248,-0.0851 0.192247,-0.21431 z m 1.73653,-0.11346 c 0,-0.10715 -0.08509,-0.18279 -0.208007,-0.18279 -0.100851,0 -0.15758,0.0315 -0.302554,0.16388 -0.132367,-0.0882 -0.233218,-0.11976 -0.390799,-0.11976 -0.375041,0 -0.620866,0.20801 -0.620866,0.52317 0,0.18594 0.100852,0.34668 0.264735,0.42231 -0.211157,0.0473 -0.299402,0.14183 -0.299402,0.31516 0,0.13867 0.06303,0.22062 0.211157,0.27104 -0.195399,0.0693 -0.289947,0.17019 -0.289947,0.2994 0,0.20801 0.242673,0.32462 0.664988,0.32462 0.526318,0 0.791053,-0.16704 0.791053,-0.49795 0,-0.15758 -0.07249,-0.28365 -0.189097,-0.33092 -0.08194,-0.0315 -0.182792,-0.0441 -0.400253,-0.0441 h -0.321464 c -0.173338,0 -0.182793,-0.009 -0.220612,-0.0284 -0.02206,-0.0126 -0.03782,-0.0473 -0.03782,-0.0819 0,-0.0945 0.08509,-0.13552 0.296251,-0.14182 0.299402,-0.006 0.346676,-0.0126 0.450679,-0.0599 0.189097,-0.0851 0.296251,-0.24898 0.296251,-0.45699 0,-0.12606 -0.02836,-0.20485 -0.116609,-0.30885 0.05358,-0.0567 0.08194,-0.0756 0.107155,-0.0756 0.03467,0 0.03782,0.16073 0.173338,0.16073 0.0788,0 0.141823,-0.0662 0.141823,-0.15128 z m -0.595654,0.3782 c 0,0.24582 -0.119761,0.39395 -0.321464,0.39395 -0.195399,0 -0.318312,-0.14813 -0.318312,-0.3845 0,-0.24898 0.119761,-0.3908 0.330919,-0.3908 0.198551,0 0.308857,0.13867 0.308857,0.38135 z m 0.195399,1.22597 c 0,0.17964 -0.204854,0.28364 -0.557833,0.28364 -0.264735,0 -0.416012,-0.0788 -0.416012,-0.22061 0,-0.104 0.05673,-0.17334 0.208006,-0.25213 h 0.233218 c 0.261584,0 0.280493,0 0.327767,0.006 0.126064,0.0126 0.204854,0.0819 0.204854,0.18279 z m 2.095813,-0.38765 c 0,-0.0221 -0.01576,-0.0378 -0.03151,-0.0378 -0.04412,0 -0.116609,0.0347 -0.135518,0.0347 -0.08824,0 -0.119762,-0.0599 -0.119762,-0.21746 v -0.63347 c 0,-0.40341 -0.223763,-0.50111 -0.586197,-0.50111 -0.35298,0 -0.614563,0.16704 -0.614563,0.39395 0,0.11976 0.07249,0.1954 0.182792,0.1954 0.0977,0 0.170187,-0.0662 0.170187,-0.16073 0,-0.0567 -0.06934,-0.15443 -0.06934,-0.17019 0,-0.0662 0.129216,-0.12291 0.280493,-0.12291 0.211158,0 0.340374,0.0693 0.340374,0.34668 v 0.12291 c -0.734325,0.12606 -0.989604,0.28049 -0.989604,0.58935 0,0.22376 0.179641,0.36874 0.456983,0.36874 0.217461,0 0.412859,-0.0883 0.548379,-0.24898 0.05042,0.16073 0.129216,0.22377 0.277341,0.22377 0.141822,0 0.289947,-0.0914 0.289947,-0.1828 z m -0.583046,-0.46959 c 0,0.1891 -0.0095,0.23322 -0.06304,0.31516 -0.0788,0.11661 -0.223764,0.1954 -0.359283,0.1954 -0.141823,0 -0.248977,-0.104 -0.248977,-0.24582 0,-0.22377 0.126065,-0.31831 0.671292,-0.40971 z m 1.994964,-0.63347 c 0,-0.15128 -0.10716,-0.25213 -0.27419,-0.25213 -0.198551,0 -0.371889,0.16073 -0.47274,0.43808 v -0.3908 l -0.557834,0.0347 v 0.13552 h 0.129216 c 0.11661,0 0.135519,0.0221 0.135519,0.15758 v 0.8793 c 0,0.12607 -0.0031,0.14813 -0.208006,0.14813 h -0.04412 v 0.11345 h 0.841478 v -0.11345 h -0.05988 c -0.201703,0 -0.236371,-0.0221 -0.236371,-0.14813 v -0.15758 c 0,-0.23637 0.04412,-0.47589 0.122913,-0.65553 0.07564,-0.17649 0.182794,-0.27419 0.315161,-0.28995 -0.04412,0.0504 -0.05673,0.0819 -0.05673,0.14182 0,0.10085 0.07249,0.17334 0.173338,0.17334 0.113458,0 0.192247,-0.0851 0.192247,-0.21431 z m 1.774348,1.26379 v -0.13551 h -0.05673 c -0.170187,0 -0.1954,-0.0315 -0.1954,-0.23007 v -1.95715 l -0.617715,0.0347 v 0.13552 h 0.185945 c 0.113458,0 0.13552,0.0221 0.13552,0.15758 v 0.71226 c -0.116609,-0.16073 -0.252129,-0.23322 -0.434922,-0.23322 -0.356132,0 -0.627169,0.34353 -0.627169,0.79736 0,0.44753 0.261583,0.76584 0.627169,0.76584 0.198551,0 0.33407,-0.0851 0.434922,-0.27419 v 0.24898 z m -0.551531,-0.72802 c 0,0.36559 -0.144974,0.60511 -0.371889,0.60511 -0.220613,0 -0.356131,-0.208 -0.356131,-0.55783 0,-0.18595 0.01891,-0.32777 0.05988,-0.43492 0.05358,-0.13867 0.170186,-0.23007 0.299402,-0.23007 0.129216,0 0.252128,0.0945 0.308857,0.23952 0.03782,0.0945 0.05988,0.22692 0.05988,0.37819 z m 2.080058,0.32777 -0.110309,-0.0599 c -0.129216,0.24267 -0.261583,0.33722 -0.472741,0.33722 -0.261582,0 -0.438073,-0.18909 -0.438073,-0.5862 h 1.021121 c 0,-0.47274 -0.261584,-0.80681 -0.649232,-0.80681 -0.403405,0 -0.705959,0.34983 -0.705959,0.82257 0,0.44123 0.286796,0.74063 0.712263,0.74063 0.299403,0 0.513712,-0.14813 0.642928,-0.44753 z m -0.337222,-0.56099 c 0,0.0914 -0.02836,0.11661 -0.129216,0.11661 h -0.55153 c 0,-0.33722 0.170185,-0.53577 0.362434,-0.53577 0.192247,0 0.318312,0.16704 0.318312,0.41916 z m 2.316422,0.96124 v -0.11345 h -0.04412 c -0.201703,0 -0.204854,-0.0221 -0.204854,-0.14813 v -0.62087 c 0,-0.22691 -0.0095,-0.28364 -0.06619,-0.39079 -0.0788,-0.15128 -0.239523,-0.24268 -0.425467,-0.24268 -0.201703,0 -0.359283,0.0946 -0.497954,0.30256 v -0.25528 l -0.545227,0.0347 v 0.13552 h 0.113457 c 0.11661,0 0.13552,0.0221 0.13552,0.15758 v 0.8793 c 0,0.12606 -0.0031,0.14813 -0.204855,0.14813 H 33.2522 v 0.11345 h 0.797356 v -0.11345 h -0.04412 c -0.204854,0 -0.208007,-0.0221 -0.208007,-0.14813 v -0.45383 c 0,-0.15443 0.02207,-0.29625 0.05673,-0.36874 0.06619,-0.14182 0.208007,-0.23952 0.343525,-0.23952 0.08194,0 0.176491,0.0473 0.223764,0.11031 0.04727,0.0662 0.06934,0.16388 0.06934,0.31516 v 0.63662 c 0,0.12607 -0.0031,0.14813 -0.208006,0.14813 h -0.04412 v 0.11345 z"
       id="text2-7"
       aria-label="wildergarden" />
    <path
       style="font-size:26.6667px;font-family:'TeX Gyre Schola Math';-inkscape-font-specification:'TeX Gyre Schola Math';text-align:center;letter-spacing:0px;white-space:pre;fill:#004021;stroke-width:1.60252;stroke-linejoin:round;paint-order:stroke fill markers"
       d="M 37.614613,20.834782 37.214612,13.42144 H 21.241259 l -0.400001,7.413342 h 1.146668 c 0.186667,-1.333335 0.426667,-2.346669 0.720001,-3.200004 0.693334,-1.946669 1.973336,-2.960003 3.786672,-2.960003 0.880001,0 1.253335,0.293333 1.253335,0.960001 v 14.533351 c 0,1.120002 -0.240001,1.253335 -2.400004,1.253335 h -0.693334 v 1.253335 h 9.146678 V 31.421462 H 33.10794 c -2.133336,0 -2.373336,-0.133333 -2.373336,-1.253335 V 15.634776 c 0,-0.666668 0.373334,-0.960001 1.253335,-0.960001 1.626669,0 2.933337,0.906667 3.600004,2.506669 0.400001,0.986668 0.666668,2.133336 0.880002,3.653338 z m 16.320015,11.840015 v -0.960001 h -0.373334 c -1.706668,0 -1.733335,-0.186667 -1.733335,-1.253335 v -5.25334 c 0,-1.920002 -0.08,-2.400003 -0.560001,-3.306671 -0.666667,-1.280001 -2.000002,-2.053336 -3.600004,-2.053336 -1.706669,0 -3.013338,0.800001 -4.213339,2.58667 v -9.413345 l -4.93334,0.293334 v 1.146668 h 1.280002 c 0.986668,0 1.146668,0.186667 1.146668,1.333335 v 14.666685 c 0,1.066668 -0.02667,1.253335 -1.733335,1.253335 h -0.373334 v 0.960001 h 6.746675 v -0.960001 h -0.373334 c -1.733335,0 -1.760002,-0.186667 -1.760002,-1.253335 v -3.813338 c 0,-1.333335 0.186667,-2.533337 0.480001,-3.146671 0.56,-1.200001 1.760002,-2.026669 2.90667,-2.026669 0.693334,0 1.493335,0.400001 1.893336,0.933335 0.4,0.586667 0.586667,1.386668 0.586667,2.693336 v 5.360007 c 0,1.066668 -0.02667,1.253335 -1.760002,1.253335 h -0.373334 v 0.960001 z m 12.879965,-3.386671 -0.933334,-0.506667 c -1.093335,2.053336 -2.213337,2.853337 -4.000006,2.853337 -2.213336,0 -3.706671,-1.600002 -3.706671,-4.960006 h 8.640011 c 0,-4.000005 -2.213336,-6.826676 -5.49334,-6.826676 -3.413338,0 -5.973341,2.960004 -5.973341,6.960009 0,3.733338 2.42667,6.266675 6.026674,6.266675 2.533337,0 4.346672,-1.253335 5.440007,-3.786672 z m -2.853337,-4.746672 c 0,0.773334 -0.24,0.986668 -1.093335,0.986668 h -4.666672 c 0,-2.853337 1.440002,-4.533339 3.06667,-4.533339 1.626669,0 2.693337,1.413335 2.693337,3.546671 z m 29.01332,1.546668 -1.253335,-0.213333 c -0.773334,4.133338 -2.880003,5.946674 -6.026674,5.946674 -3.946672,0 -5.813341,-2.74667 -5.813341,-8.480011 0,-5.813341 1.786669,-9.066678 5.493341,-9.066678 1.866669,0 3.520004,0.986668 4.533339,2.693337 0.506667,0.880001 0.906668,1.920002 1.520002,3.973338 h 1.173334 v -7.706676 h -1.413335 l -1.066668,1.573335 c -1.893335,-1.386668 -2.933337,-1.786669 -4.720006,-1.786669 -4.906672,0 -9.040011,4.640006 -9.040011,10.213346 0,5.733341 3.760005,9.840013 9.013345,9.840013 4.266672,0 6.986675,-2.50667 7.600009,-6.986676 z m 17.253304,6.586675 v -0.960001 h -0.37333 c -1.70667,0 -1.73333,-0.186667 -1.73333,-1.253335 v -5.25334 c 0,-1.920002 -0.08,-2.400003 -0.56001,-3.306671 -0.66666,-1.280001 -2,-2.053336 -3.6,-2.053336 -1.70667,0 -3.01334,0.800001 -4.213338,2.58667 v -9.413345 l -4.93334,0.293334 v 1.146668 h 1.280002 c 0.986668,0 1.146668,0.186667 1.146668,1.333335 v 14.666685 c 0,1.066668 -0.02667,1.253335 -1.733336,1.253335 h -0.373333 v 0.960001 h 6.746677 v -0.960001 h -0.37334 c -1.733332,0 -1.759998,-0.186667 -1.759998,-1.253335 v -3.813338 c 0,-1.333335 0.186667,-2.533337 0.479998,-3.146671 0.56,-1.200001 1.76,-2.026669 2.90667,-2.026669 0.69334,0 1.49334,0.400001 1.89334,0.933335 0.4,0.586667 0.58667,1.386668 0.58667,2.693336 v 5.360007 c 0,1.066668 -0.0267,1.253335 -1.76001,1.253335 h -0.37333 v 0.960001 z m 14.95997,-1.360001 c 0,-0.186667 -0.13333,-0.320001 -0.26666,-0.320001 -0.37334,0 -0.98667,0.293334 -1.14667,0.293334 -0.74667,0 -1.01334,-0.506667 -1.01334,-1.840002 V 24.08812 c 0,-3.413338 -1.89333,-4.240006 -4.96,-4.240006 -2.98667,0 -5.20001,1.413336 -5.20001,3.333338 0,1.013335 0.61334,1.653335 1.54667,1.653335 0.82667,0 1.44,-0.56 1.44,-1.360001 0,-0.480001 -0.58667,-1.306669 -0.58667,-1.440002 0,-0.560001 1.09334,-1.040001 2.37334,-1.040001 1.78667,0 2.88,0.586667 2.88,2.933337 v 1.040001 c -6.21334,1.066668 -8.37334,2.373336 -8.37334,4.986673 0,1.893336 1.52,3.120004 3.86667,3.120004 1.84,0 3.49334,-0.746668 4.64001,-2.10667 0.42667,1.360002 1.09333,1.893336 2.34667,1.893336 1.2,0 2.45333,-0.773334 2.45333,-1.546668 z m -4.93334,-3.973339 c 0,1.600002 -0.08,1.973336 -0.53333,2.66667 -0.66667,0.986668 -1.89333,1.653336 -3.04,1.653336 -1.2,0 -2.10667,-0.880001 -2.10667,-2.080003 0,-1.893336 1.06667,-2.693337 5.68,-3.466671 z m 15.25335,1.093335 c 0,-0.16 0,-0.346667 -0.0267,-0.613334 h -1.12 c -0.08,2.400003 -0.77334,3.626671 -2.08,3.626671 -1.22667,0 -1.57334,-0.666667 -1.57334,-2.773337 v -7.280009 h 3.92001 v -1.146668 h -3.92001 v -5.280007 h -1.09333 c -0.26667,3.466671 -1.44001,5.226673 -3.60001,5.386674 v 1.040001 h 2.18667 v 6.800009 c 0,1.893335 0.0533,2.533336 0.32,3.14667 0.45334,1.120002 1.46667,1.733336 3.04001,1.733336 2.64,0 3.94667,-2.10667 3.94667,-4.640006 z m 10.37334,0 c 0,-0.16 0,-0.346667 -0.0267,-0.613334 h -1.12001 c -0.08,2.400003 -0.77333,3.626671 -2.08,3.626671 -1.22667,0 -1.57333,-0.666667 -1.57333,-2.773337 v -7.280009 h 3.92 v -1.146668 h -3.92 v -5.280007 h -1.09334 c -0.26667,3.466671 -1.44,5.226673 -3.6,5.386674 v 1.040001 h 2.18667 v 6.800009 c 0,1.893335 0.0533,2.533336 0.32,3.14667 0.45333,1.120002 1.46666,1.733336 3.04,1.733336 2.64,0 3.94667,-2.10667 3.94667,-4.640006 z m 12.80002,0.853334 -0.93334,-0.506667 c -1.09333,2.053336 -2.21333,2.853337 -4,2.853337 -2.21334,0 -3.70667,-1.600002 -3.70667,-4.960006 h 8.64001 c 0,-4.000005 -2.21334,-6.826676 -5.49334,-6.826676 -3.41334,0 -5.97335,2.960004 -5.97335,6.960009 0,3.733338 2.42667,6.266675 6.02668,6.266675 2.53334,0 4.34667,-1.253335 5.44001,-3.786672 z m -2.85334,-4.746672 c 0,0.773334 -0.24,0.986668 -1.09334,0.986668 h -4.66667 c 0,-2.853337 1.44,-4.533339 3.06667,-4.533339 1.62667,0 2.69334,1.413335 2.69334,3.546671 z m 15.38663,-2.560004 c 0,-1.280001 -0.90667,-2.133336 -2.32,-2.133336 -1.68,0 -3.14667,1.360002 -4.00001,3.706672 v -3.306671 l -4.72,0.293334 v 1.146668 h 1.09333 c 0.98667,0 1.14667,0.186667 1.14667,1.333335 v 7.440009 c 0,1.066668 -0.0267,1.253335 -1.76,1.253335 h -0.37333 v 0.960001 h 7.12 v -0.960001 h -0.50666 c -1.70667,0 -2.00001,-0.186667 -2.00001,-1.253335 v -1.333335 c 0,-2.000002 0.37334,-4.026672 1.04001,-5.546674 0.64,-1.493335 1.54666,-2.320002 2.66667,-2.453336 -0.37334,0.426667 -0.48,0.693334 -0.48,1.200002 0,0.853334 0.61333,1.466668 1.46666,1.466668 0.96001,0 1.62667,-0.720001 1.62667,-1.813336 z"
       id="text1"
       transform="scale(0.26458333)"
       aria-label="The Chatter&#10;" />
    <rect
       style="fill:#003920;fill-opacity:1;stroke:#00351b;stroke-width:0.340428;stroke-linejoin:round;stroke-dasharray:none;stroke-opacity:1"
       id="rect9-3"
       width="16.937511"
       height="46.430286"
       x="31.392275"
       y="75.552979"
       sodipodi:type="rect"
       ry="3.5873296" />
    <path
       style="font-size:4.93889px;font-family:'TeX Gyre Cursor';-inkscape-font-specification:'TeX Gyre Cursor';text-align:center;letter-spacing:0px;text-anchor:middle;fill:#ffffff;stroke-width:0.424;stroke-linejoin:round;paint-order:stroke fill markers"
       d="m 35.560244,88.289657 c 0,-0.06421 -0.04445,-0.09878 -0.13335,-0.09878 h -0.750711 c -0.0889,0 -0.13335,0.03457 -0.13335,0.09878 0,0.06914 0.04445,0.103717 0.13335,0.103717 h 0.335844 l -0.726017,1.654528 h -0.09384 l -0.740833,-1.654528 h 0.321028 c 0.09384,0 0.138289,-0.03457 0.138289,-0.103717 0,-0.06421 -0.04445,-0.09878 -0.138289,-0.09878 h -0.745773 c -0.0889,0 -0.13335,0.03457 -0.13335,0.09878 0,0.06914 0.04445,0.103717 0.13335,0.103717 h 0.202495 l 0.829733,1.857023 h 0.345723 l 0.819855,-1.857023 h 0.202495 c 0.0889,0 0.13335,-0.03457 0.13335,-0.103717 z m 2.755893,0.948267 c 0,-0.627239 -0.493889,-1.116189 -1.126067,-1.116189 -0.627239,0 -1.126067,0.493889 -1.126067,1.101373 0,0.617361 0.498828,1.106311 1.126067,1.106311 0.6223,0 1.126067,-0.48895 1.126067,-1.091495 z m -0.202494,0 c 0,0.48895 -0.414867,0.889 -0.923573,0.889 -0.513644,0 -0.923572,-0.40005 -0.923572,-0.903816 0,-0.498828 0.409928,-0.898878 0.923572,-0.898878 0.518584,0 0.923573,0.395111 0.923573,0.913694 z m 3.373254,-0.948267 c 0,-0.06421 -0.04445,-0.09878 -0.13335,-0.09878 H 40.80533 c -0.0889,0 -0.13335,0.03457 -0.13335,0.09878 0,0.06914 0.04445,0.103717 0.13335,0.103717 h 0.246945 l -0.340784,1.580445 -0.439561,-1.259417 h -0.251883 l -0.424745,1.259417 -0.3556,-1.580445 h 0.261761 c 0.0889,0 0.13335,-0.03457 0.13335,-0.103717 0,-0.06421 -0.04445,-0.09878 -0.13335,-0.09878 h -0.548217 c -0.0889,0 -0.13335,0.03457 -0.13335,0.09878 0,0.06914 0.04445,0.103717 0.13335,0.103717 h 0.09384 l 0.414867,1.857023 h 0.251883 l 0.439562,-1.279173 0.449439,1.279173 h 0.246944 l 0.409928,-1.857023 h 0.09384 c 0.0889,0 0.13335,-0.03457 0.13335,-0.103717 z m 2.716382,0.977901 c 0,-0.227189 -0.01482,-0.321028 -0.08396,-0.484012 -0.1778,-0.409927 -0.572912,-0.661811 -1.047045,-0.661811 -0.632178,0 -1.126067,0.459317 -1.126067,1.056923 0,0.642055 0.528461,1.150761 1.195211,1.150761 0.449439,0 1.042106,-0.232128 1.042106,-0.404989 0,-0.05433 -0.04445,-0.09878 -0.09384,-0.09878 -0.02469,0 -0.04445,0.0099 -0.07902,0.03457 -0.197555,0.158045 -0.558094,0.2667 -0.864306,0.2667 -0.5334,0 -0.928511,-0.340783 -0.997655,-0.859366 z m -0.207434,-0.202495 h -1.847144 c 0.0889,-0.454378 0.4445,-0.740833 0.923572,-0.740833 0.479072,0 0.84455,0.291394 0.923572,0.740833 z m 3.111494,1.081617 c 0,-0.06421 -0.04445,-0.09878 -0.138289,-0.09878 h -0.790223 v -2.780595 h -0.780344 c -0.0889,0 -0.13335,0.03457 -0.13335,0.09878 0,0.06914 0.04445,0.103717 0.13335,0.103717 h 0.57785 v 2.5781 H 45.18611 c -0.0889,0 -0.13335,0.03457 -0.13335,0.09878 0,0.06914 0.04445,0.103717 0.13335,0.103717 h 1.78294 c 0.0889,0 0.138289,-0.03457 0.138289,-0.103717 z"
       id="text4"
       aria-label="vowel" />
    <path
       style="font-size:4.93889px;font-family:'TeX Gyre Cursor';-inkscape-font-specification:'TeX Gyre Cursor';text-align:center;letter-spacing:0px;text-anchor:middle;fill:#ffffff;stroke-width:0.424;stroke-linejoin:round;paint-order:stroke fill markers"
       d="m 38.443577,118.68455 c 0,-0.0642 -0.04445,-0.0988 -0.13335,-0.0988 h -0.167923 v -1.39276 c 0,-0.2914 -0.232128,-0.5334 -0.518583,-0.5334 -0.202495,0 -0.365478,0.10371 -0.558095,0.35066 -0.108655,-0.23707 -0.2667,-0.35066 -0.479072,-0.35066 -0.207433,0 -0.350661,0.0889 -0.518583,0.32596 v -0.25682 h -0.365478 c -0.0889,0 -0.13335,0.0346 -0.13335,0.0988 0,0.0691 0.04445,0.10372 0.13335,0.10372 h 0.167922 v 1.65452 h -0.167922 c -0.0889,0 -0.13335,0.0346 -0.13335,0.0988 0,0.0691 0.04445,0.10372 0.128411,0.10372 h 0.538339 c 0.08396,0 0.13335,-0.0346 0.13335,-0.10372 0,-0.0642 -0.04445,-0.0988 -0.13335,-0.0988 h -0.167922 v -1.31868 c 0.187677,-0.28152 0.345722,-0.40499 0.518583,-0.40499 0.167922,0 0.321028,0.17286 0.321028,0.36548 v 1.56069 h 0.365478 c 0.0889,0 0.13335,-0.0346 0.13335,-0.10372 0,-0.0642 -0.04445,-0.0988 -0.13335,-0.0988 h -0.167923 v -1.31868 c 0.187678,-0.28645 0.335845,-0.40499 0.513645,-0.40499 0.172861,0 0.325967,0.16299 0.325967,0.35066 v 1.57551 h 0.365478 c 0.0889,0 0.13335,-0.0346 0.13335,-0.10372 z m 2.54352,0 c 0,-0.0642 -0.04445,-0.0988 -0.138288,-0.0988 h -0.790223 v -1.85702 h -0.785283 c -0.0889,0 -0.13335,0.0346 -0.13335,0.0988 0,0.0691 0.04445,0.10372 0.13335,0.10372 h 0.582789 v 1.65452 h -0.790223 c -0.0889,0 -0.13335,0.0346 -0.13335,0.0988 0,0.0691 0.04445,0.10372 0.13335,0.10372 h 1.78294 c 0.0889,0 0.138288,-0.0346 0.138288,-0.10372 z m -0.780344,-2.65712 c 0,-0.13829 -0.108656,-0.25188 -0.246945,-0.25188 -0.13335,0 -0.246944,0.11359 -0.246944,0.24694 0,0.13335 0.113594,0.24695 0.246944,0.24695 0.13335,0 0.246945,-0.1136 0.246945,-0.24201 z m 3.946165,2.65712 c 0,-0.0642 -0.04445,-0.0988 -0.13335,-0.0988 h -0.04445 l -0.908755,-0.87912 0.805039,-0.7754 h 0.03457 c 0.0889,0 0.13335,-0.0346 0.13335,-0.10372 0,-0.0642 -0.04445,-0.0988 -0.13335,-0.0988 h -0.543278 c -0.0889,0 -0.13335,0.0346 -0.13335,0.0988 0,0.0691 0.04445,0.10372 0.13335,0.10372 h 0.237067 l -0.676628,0.64205 -0.661811,-0.64205 h 0.227188 c 0.0889,0 0.13335,-0.0346 0.13335,-0.10372 0,-0.0691 -0.04445,-0.0988 -0.13335,-0.0988 h -0.548216 c -0.0889,0 -0.13335,0.0346 -0.13335,0.0988 0,0.0691 0.04445,0.10372 0.13335,0.10372 h 0.03457 l 0.805039,0.7754 -0.908756,0.87912 h -0.04445 c -0.0889,0 -0.13335,0.0346 -0.13335,0.0988 0,0.0691 0.04445,0.10372 0.13335,0.10372 h 0.656873 c 0.0889,0 0.13335,-0.0346 0.13335,-0.10372 0,-0.0642 -0.04445,-0.0988 -0.13335,-0.0988 h -0.335845 l 0.775406,-0.73589 0.765528,0.73589 h -0.321028 c -0.0889,0 -0.13335,0.0346 -0.13335,0.0988 0,0.0691 0.04445,0.10372 0.13335,0.10372 h 0.651933 c 0.0889,0 0.13335,-0.0346 0.13335,-0.10372 z"
       id="text4-4"
       aria-label="mix&#10;" />
    <g
       id="text4-4-0"
       style="font-size:4.93889px;font-family:'TeX Gyre Cursor';-inkscape-font-specification:'TeX Gyre Cursor';text-align:center;letter-spacing:0px;text-anchor:middle;fill:#002f00;stroke-width:0.424;stroke-linejoin:round;paint-order:stroke fill markers"
       aria-label="v/oct&#10;&#10;">
      <path
         style="font-size:4.23333px;letter-spacing:-1.00013px"
         d="m 17.673413,70.748338 c 0,-0.05503 -0.0381,-0.08467 -0.114299,-0.08467 h -0.643467 c -0.0762,0 -0.114299,0.02963 -0.114299,0.08467 0,0.05927 0.0381,0.0889 0.114299,0.0889 h 0.287867 l -0.6223,1.418166 h -0.08043 l -0.634999,-1.418166 h 0.275166 c 0.08043,0 0.118533,-0.02963 0.118533,-0.0889 0,-0.05503 -0.0381,-0.08467 -0.118533,-0.08467 h -0.639233 c -0.0762,0 -0.1143,0.02963 -0.1143,0.08467 0,0.05927 0.0381,0.0889 0.1143,0.0889 h 0.173567 l 0.711199,1.591732 h 0.296333 l 0.702733,-1.591732 h 0.173567 c 0.0762,0 0.114299,-0.02963 0.114299,-0.0889 z m 1.188495,-1.066799 c 0,-0.04233 -0.04233,-0.08043 -0.08467,-0.08043 -0.04233,0 -0.0635,0.01693 -0.09313,0.0762 l -1.384299,2.946398 c -0.01693,0.02963 -0.02117,0.0508 -0.02117,0.06773 0,0.04233 0.04233,0.08043 0.08467,0.08043 0.04233,0 0.0635,-0.01693 0.09313,-0.0762 l 1.384299,-2.946397 c 0.01693,-0.03387 0.02117,-0.0508 0.02117,-0.06773 z"
         id="path1" />
      <path
         style="font-size:4.23333px;letter-spacing:-0.116417px"
         d="m 20.575336,71.561138 c 0,-0.537633 -0.423333,-0.956733 -0.965199,-0.956733 -0.537633,0 -0.965199,0.423333 -0.965199,0.944033 0,0.529166 0.427566,0.948266 0.965199,0.948266 0.5334,0 0.965199,-0.4191 0.965199,-0.935566 z m -0.173566,0 c 0,0.419099 -0.3556,0.761999 -0.791633,0.761999 -0.440266,0 -0.791633,-0.3429 -0.791633,-0.774699 0,-0.427567 0.351367,-0.770466 0.791633,-0.770466 0.4445,0 0.791633,0.338666 0.791633,0.783166 z m 2.626774,0.495299 c 0,-0.04233 -0.0381,-0.08043 -0.08043,-0.08043 -0.02963,0 -0.04233,0.0085 -0.0762,0.04233 -0.220134,0.2032 -0.4826,0.3048 -0.791633,0.3048 -0.461433,0 -0.787399,-0.3175 -0.787399,-0.761999 0,-0.465667 0.321733,-0.783166 0.787399,-0.783166 0.3556,0 0.656166,0.1778 0.673099,0.402166 0.0085,0.07197 0.03387,0.1016 0.0889,0.1016 0.05503,0 0.08467,-0.0381 0.08467,-0.1143 v -0.385233 c 0,-0.08043 -0.02963,-0.118533 -0.08467,-0.118533 -0.05927,0 -0.0889,0.0381 -0.0889,0.118533 v 0.05503 c -0.173566,-0.1524 -0.402166,-0.232833 -0.660399,-0.232833 -0.567266,0 -0.973666,0.402167 -0.973666,0.960966 0,0.541866 0.397933,0.931333 0.952499,0.931333 0.2794,0 0.5588,-0.08467 0.7747,-0.232834 0.118533,-0.08043 0.182033,-0.156633 0.182033,-0.207433 z m 2.271174,0.156634 c 0,-0.04233 -0.0381,-0.08467 -0.08043,-0.08467 -0.02117,0 -0.03387,0.0042 -0.06773,0.0254 -0.1651,0.09737 -0.465666,0.169333 -0.702733,0.169333 -0.2921,0 -0.474133,-0.1397 -0.474133,-0.3556 v -1.130299 h 0.931333 c 0.0762,0 0.1143,-0.02963 0.1143,-0.0889 0,-0.05503 -0.0381,-0.08467 -0.1143,-0.08467 h -0.931333 v -0.503766 c 0,-0.08043 -0.0254,-0.1143 -0.08467,-0.1143 -0.05927,0 -0.0889,0.0381 -0.0889,0.1143 v 0.503766 h -0.313267 c -0.08043,0 -0.118533,0.02963 -0.118533,0.08467 0,0.05927 0.0381,0.0889 0.118533,0.0889 h 0.313267 v 1.138766 c 0,0.3175 0.258233,0.5207 0.656166,0.5207 0.359833,0 0.842432,-0.160867 0.842432,-0.283633 z"
         id="path4" />
    </g>
    <path
       style="font-size:5.64444px;font-family:'TeX Gyre Cursor';-inkscape-font-specification:'TeX Gyre Cursor';text-align:center;letter-spacing:-0.116417px;text-anchor:middle;fill:#002f00;stroke-width:0.424;stroke-linejoin:round;paint-order:stroke fill markers"
       d="m 17.809418,104.29117 c 0,-0.0508 -0.03387,-0.096 -0.129822,-0.17498 -0.146755,-0.12418 -0.270933,-0.17498 -0.434622,-0.17498 -0.287866,0 -0.564444,0.15805 -1.089377,0.63218 v -0.57573 h -0.654755 c -0.09596,0 -0.1524,0.0452 -0.1524,0.11288 0,0.0734 0.05645,0.11854 0.1524,0.11854 h 0.423333 v 1.89088 h -0.541866 c -0.09596,0 -0.1524,0.0452 -0.1524,0.11289 0,0.0734 0.05645,0.11854 0.1524,0.11854 h 1.783643 c 0.09596,0 0.1524,-0.0452 0.1524,-0.11289 0,-0.0734 -0.05644,-0.11854 -0.1524,-0.11854 h -1.010355 v -1.24742 c 0.620889,-0.57008 0.818444,-0.69991 1.072444,-0.69991 0.124178,0 0.237067,0.0621 0.372533,0.19191 0.03951,0.0395 0.0508,0.0452 0.09031,0.0452 0.06773,0 0.118533,-0.0508 0.118533,-0.11853 z m 3.196861,0.90311 c 0,-0.71685 -0.564444,-1.27565 -1.286932,-1.27565 -0.716844,0 -1.286932,0.56445 -1.286932,1.25871 0,0.70556 0.570088,1.26436 1.286932,1.26436 0.711199,0 1.286932,-0.5588 1.286932,-1.24742 z m -0.231422,0 c 0,0.5588 -0.474133,1.016 -1.05551,1.016 -0.587022,0 -1.05551,-0.4572 -1.05551,-1.03294 0,-0.57008 0.468488,-1.02728 1.05551,-1.02728 0.592666,0 1.05551,0.45155 1.05551,1.04422 z m 3.501661,0 c 0,-0.71685 -0.564444,-1.27565 -1.286932,-1.27565 -0.716844,0 -1.286933,0.56445 -1.286933,1.25871 0,0.70556 0.570089,1.26436 1.286933,1.26436 0.711199,0 1.286932,-0.5588 1.286932,-1.24742 z m -0.231422,0 c 0,0.5588 -0.474133,1.016 -1.05551,1.016 -0.587022,0 -1.055511,-0.4572 -1.055511,-1.03294 0,-0.57008 0.468489,-1.02728 1.055511,-1.02728 0.592666,0 1.05551,0.45155 1.05551,1.04422 z m 3.337972,0.86924 c 0,-0.0564 -0.0508,-0.11289 -0.107245,-0.11289 -0.02822,0 -0.04515,0.006 -0.09031,0.0339 -0.220133,0.12982 -0.620888,0.22578 -0.936977,0.22578 -0.389466,0 -0.632177,-0.18627 -0.632177,-0.47414 v -1.50706 h 1.241777 c 0.1016,0 0.152399,-0.0395 0.152399,-0.11854 0,-0.0734 -0.0508,-0.11288 -0.152399,-0.11288 h -1.241777 v -0.67169 c 0,-0.10725 -0.03387,-0.1524 -0.112889,-0.1524 -0.07902,0 -0.118533,0.0508 -0.118533,0.1524 v 0.67169 h -0.417689 c -0.107244,0 -0.158044,0.0395 -0.158044,0.11288 0,0.079 0.0508,0.11854 0.158044,0.11854 h 0.417689 v 1.51835 c 0,0.42333 0.344311,0.69427 0.874888,0.69427 0.479777,0 1.123244,-0.21449 1.123244,-0.37818 z"
       id="text4-4-0-0"
       aria-label="root&#10;&#10;&#10;" />
    <path
       style="font-size:4.23333px;font-family:'TeX Gyre Cursor';-inkscape-font-specification:'TeX Gyre Cursor';text-align:center;letter-spacing:-0.116417px;text-anchor:middle;fill:#002f00;stroke-width:0.424;stroke-linejoin:round;paint-order:stroke fill markers"
       d="m 30.959247,71.724996 c 0,-0.194733 -0.0127,-0.275166 -0.07197,-0.414866 -0.1524,-0.351367 -0.491067,-0.567267 -0.897466,-0.567267 -0.541867,0 -0.9652,0.3937 -0.9652,0.905933 0,0.550333 0.452967,0.986366 1.024466,0.986366 0.385233,0 0.893233,-0.198967 0.893233,-0.347133 0,-0.04657 -0.0381,-0.08467 -0.08043,-0.08467 -0.02117,0 -0.0381,0.0085 -0.06773,0.02963 -0.169333,0.135466 -0.478366,0.228599 -0.740832,0.228599 -0.4572,0 -0.795866,-0.292099 -0.855133,-0.736599 z m -0.1778,-0.173567 h -1.583265 c 0.0762,-0.389466 0.381,-0.634999 0.791633,-0.634999 0.410633,0 0.723899,0.249766 0.791632,0.634999 z m 2.724141,0.9271 c 0,-0.05503 -0.0381,-0.08467 -0.1143,-0.08467 h -0.0381 l -0.778932,-0.753533 0.690032,-0.664632 h 0.02963 c 0.0762,0 0.1143,-0.02963 0.1143,-0.0889 0,-0.05503 -0.0381,-0.08467 -0.1143,-0.08467 h -0.465667 c -0.0762,0 -0.1143,0.02963 -0.1143,0.08467 0,0.05927 0.0381,0.0889 0.1143,0.0889 h 0.2032 l -0.579966,0.550332 -0.567266,-0.550332 h 0.194733 c 0.0762,0 0.1143,-0.02963 0.1143,-0.0889 0,-0.05927 -0.0381,-0.08467 -0.1143,-0.08467 h -0.4699 c -0.0762,0 -0.114299,0.02963 -0.114299,0.08467 0,0.05927 0.0381,0.0889 0.114299,0.0889 h 0.02963 l 0.690032,0.664632 -0.778932,0.753533 h -0.0381 c -0.0762,0 -0.1143,0.02963 -0.1143,0.08467 0,0.05927 0.0381,0.0889 0.1143,0.0889 h 0.563033 c 0.0762,0 0.1143,-0.02963 0.1143,-0.0889 0,-0.05503 -0.0381,-0.08467 -0.1143,-0.08467 h -0.287867 l 0.664633,-0.630766 0.656166,0.630766 h -0.275166 c -0.0762,0 -0.1143,0.02963 -0.1143,0.08467 0,0.05927 0.0381,0.0889 0.1143,0.0889 h 0.558799 c 0.0762,0 0.1143,-0.02963 0.1143,-0.0889 z m 2.211908,-0.127 c 0,-0.04233 -0.0381,-0.08467 -0.08043,-0.08467 -0.02117,0 -0.03387,0.0042 -0.06773,0.0254 -0.1651,0.09737 -0.465667,0.169333 -0.702733,0.169333 -0.2921,0 -0.474133,-0.1397 -0.474133,-0.355599 v -1.130299 h 0.931332 c 0.0762,0 0.1143,-0.02963 0.1143,-0.0889 0,-0.05503 -0.0381,-0.08467 -0.1143,-0.08467 h -0.931332 v -0.503766 c 0,-0.08043 -0.0254,-0.1143 -0.08467,-0.1143 -0.05927,0 -0.0889,0.0381 -0.0889,0.1143 v 0.503766 h -0.313266 c -0.08043,0 -0.118533,0.02963 -0.118533,0.08467 0,0.05927 0.0381,0.0889 0.118533,0.0889 h 0.313266 v 1.138765 c 0,0.3175 0.258233,0.5207 0.656166,0.5207 0.359834,0 0.842433,-0.160867 0.842433,-0.283633 z m 2.512474,-0.626533 c 0,-0.194733 -0.0127,-0.275166 -0.07197,-0.414866 -0.1524,-0.351367 -0.491066,-0.567267 -0.897466,-0.567267 -0.541866,0 -0.965199,0.3937 -0.965199,0.905933 0,0.550333 0.452966,0.986366 1.024466,0.986366 0.385233,0 0.893232,-0.198967 0.893232,-0.347133 0,-0.04657 -0.0381,-0.08467 -0.08043,-0.08467 -0.02117,0 -0.0381,0.0085 -0.06773,0.02963 -0.169334,0.135466 -0.478367,0.228599 -0.740833,0.228599 -0.4572,0 -0.795866,-0.292099 -0.855133,-0.736599 z m -0.177799,-0.173567 h -1.583266 c 0.0762,-0.389466 0.381,-0.634999 0.791633,-0.634999 0.410633,0 0.723899,0.249766 0.791633,0.634999 z m 2.690274,-0.529166 c 0,-0.0381 -0.0254,-0.07197 -0.09737,-0.131233 -0.110066,-0.09313 -0.2032,-0.131233 -0.325966,-0.131233 -0.2159,0 -0.423333,0.118533 -0.817033,0.474133 v -0.4318 h -0.491066 c -0.07197,0 -0.1143,0.03387 -0.1143,0.08467 0,0.05503 0.04233,0.0889 0.1143,0.0889 h 0.3175 v 1.418165 h -0.4064 c -0.07197,0 -0.1143,0.03387 -0.1143,0.08467 0,0.05503 0.04233,0.0889 0.1143,0.0889 h 1.337732 c 0.07197,0 0.1143,-0.03387 0.1143,-0.08467 0,-0.05503 -0.04233,-0.0889 -0.1143,-0.0889 h -0.757766 v -0.935566 c 0.465667,-0.427566 0.613833,-0.524933 0.804333,-0.524933 0.09313,0 0.1778,0.04657 0.2794,0.143934 0.02963,0.02963 0.0381,0.03387 0.06773,0.03387 0.0508,0 0.0889,-0.0381 0.0889,-0.0889 z m 2.423574,1.456266 c 0,-0.05503 -0.0381,-0.08467 -0.1143,-0.08467 h -0.143933 v -1.075266 c 0,-0.325966 -0.287866,-0.575733 -0.664633,-0.575733 -0.262466,0 -0.414866,0.08043 -0.660399,0.351367 v -0.2921 h -0.3175 c -0.0762,0 -0.1143,0.02963 -0.1143,0.08467 0,0.05927 0.0381,0.0889 0.1143,0.0889 h 0.143933 v 1.418165 h -0.190499 c -0.08043,0 -0.118534,0.02963 -0.118534,0.08467 0,0.05927 0.0381,0.0889 0.118534,0.0889 h 0.554566 c 0.0762,0 0.1143,-0.02963 0.1143,-0.0889 0,-0.05503 -0.0381,-0.08467 -0.1143,-0.08467 h -0.1905 V 71.32283 c 0.1905,-0.254 0.313266,-0.4064 0.643466,-0.4064 0.262467,0 0.508,0.160867 0.508,0.4318 v 1.045632 h -0.143934 c -0.0762,0 -0.114299,0.02963 -0.114299,0.08467 0,0.05927 0.0381,0.0889 0.114299,0.0889 h 0.461433 c 0.0762,0 0.1143,-0.02963 0.1143,-0.0889 z m 2.423575,0 c 0,-0.05503 -0.0381,-0.08467 -0.1143,-0.08467 h -0.2286 v -1.130299 c 0,-0.300566 -0.287866,-0.5207 -0.681566,-0.5207 -0.156633,0 -0.4318,0.05503 -0.664633,0.135467 -0.04657,0.01693 -0.07197,0.04657 -0.07197,0.0889 0,0.04657 0.0381,0.08467 0.08043,0.08467 0,0 0.0254,-0.0042 0.04233,-0.0085 0.3302,-0.1016 0.448733,-0.127 0.601133,-0.127 0.309033,0 0.5207,0.1397 0.5207,0.347133 v 0.300566 c -0.249767,-0.06773 -0.381,-0.0889 -0.575733,-0.0889 -0.529167,0 -0.893233,0.249766 -0.893233,0.618066 0,0.321733 0.2667,0.541866 0.6604,0.541866 0.296333,0 0.550332,-0.110067 0.808566,-0.351367 v 0.283634 h 0.402166 c 0.0762,0 0.1143,-0.02963 0.1143,-0.0889 z m -0.516466,-0.385233 c -0.283634,0.266699 -0.512233,0.368299 -0.8128,0.368299 -0.2921,0 -0.482599,-0.143933 -0.482599,-0.364066 0,-0.2667 0.304799,-0.448733 0.753532,-0.448733 0.186267,0 0.389467,0.0254 0.541867,0.0635 z m 2.80034,0.385233 c 0,-0.05503 -0.0381,-0.08467 -0.118533,-0.08467 h -0.677333 v -2.383365 h -0.668866 c -0.0762,0 -0.1143,0.02963 -0.1143,0.08467 0,0.05927 0.0381,0.0889 0.1143,0.0889 h 0.4953 v 2.209798 h -0.677333 c -0.0762,0 -0.1143,0.02963 -0.1143,0.08467 0,0.05927 0.0381,0.0889 0.1143,0.0889 h 1.528232 c 0.0762,0 0.118533,-0.02963 0.118533,-0.0889 z"
       id="text4-4-0-0-3"
       aria-label="external&#10;&#10;&#10;&#10;" />
    <path
       style="font-size:4.23333px;font-family:'TeX Gyre Cursor';-inkscape-font-specification:'TeX Gyre Cursor';text-align:center;letter-spacing:-0.298979px;text-anchor:middle;fill:#ffffff;stroke-width:0.424;stroke-linejoin:round;paint-order:stroke fill markers"
       d="m 34.375891,103.59479 c 0,-0.50377 -0.397933,-0.9398 -0.922866,-0.9398 -0.321733,0 -0.533399,0.1143 -0.757766,0.4064 v -0.34714 h -0.402166 c -0.0762,0 -0.1143,0.0296 -0.1143,0.0847 0,0.0593 0.0381,0.0889 0.1143,0.0889 h 0.2286 v 2.20557 h -0.2286 c -0.0762,0 -0.1143,0.0296 -0.1143,0.0847 0,0.0593 0.0381,0.0889 0.1143,0.0889 h 0.817032 c 0.0762,0 0.1143,-0.0296 0.1143,-0.0889 0,-0.055 -0.0381,-0.0847 -0.1143,-0.0847 h -0.414866 v -0.95674 c 0.194733,0.2794 0.4318,0.4064 0.757766,0.4064 0.5207,0 0.922866,-0.4445 0.922866,-0.94826 z m -0.173566,0.008 c 0,0.3937 -0.338667,0.76624 -0.753533,0.76624 -0.4191,0 -0.753533,-0.37254 -0.753533,-0.7747 0,-0.39794 0.334433,-0.76624 0.753533,-0.76624 0.427566,0 0.753533,0.36407 0.753533,0.7747 z m 2.274879,0.7874 c 0,-0.055 -0.0381,-0.0847 -0.118534,-0.0847 h -0.677332 v -2.38337 h -0.668867 c -0.0762,0 -0.114299,0.0296 -0.114299,0.0847 0,0.0593 0.0381,0.0889 0.114299,0.0889 h 0.4953 v 2.2098 h -0.677333 c -0.0762,0 -0.1143,0.0296 -0.1143,0.0847 0,0.0593 0.0381,0.0889 0.1143,0.0889 h 1.528232 c 0.0762,0 0.118534,-0.0296 0.118534,-0.0889 z m 2.325678,-0.77893 c 0,-0.53763 -0.423333,-0.95673 -0.965199,-0.95673 -0.537633,0 -0.965199,0.42333 -0.965199,0.94403 0,0.52917 0.427566,0.94827 0.965199,0.94827 0.5334,0 0.965199,-0.4191 0.965199,-0.93557 z m -0.173566,0 c 0,0.4191 -0.3556,0.762 -0.791633,0.762 -0.440266,0 -0.791632,-0.3429 -0.791632,-0.7747 0,-0.42757 0.351366,-0.77047 0.791632,-0.77047 0.4445,0 0.791633,0.33867 0.791633,0.78317 z m 2.283346,0.37677 c 0,-0.30057 -0.258233,-0.46567 -0.762,-0.5461 -0.364066,-0.0593 -0.626532,-0.0423 -0.626532,-0.29634 0,-0.18203 0.237066,-0.3175 0.550333,-0.3175 0.321733,0 0.541866,0.12277 0.563032,0.31327 0.0085,0.0677 0.0381,0.0974 0.0889,0.0974 0.05503,0 0.08467,-0.0381 0.08467,-0.1143 v -0.2921 c 0,-0.0804 -0.02963,-0.11854 -0.08467,-0.11854 -0.05503,0 -0.0889,0.0466 -0.0889,0.11854 v 0.0169 c -0.148166,-0.13123 -0.338666,-0.19473 -0.579966,-0.19473 -0.414866,0 -0.723899,0.2032 -0.723899,0.47836 0,0.24977 0.143933,0.40217 0.745066,0.4699 0.457199,0.0508 0.643466,0.18627 0.643466,0.381 0,0.22437 -0.2794,0.38947 -0.651933,0.38947 -0.359833,0 -0.651933,-0.15663 -0.651933,-0.35137 v -0.0296 c 0,-0.055 -0.03387,-0.0931 -0.08467,-0.0931 -0.05927,0 -0.0889,0.0381 -0.0889,0.1143 v 0.35136 c 0,0.0762 0.02963,0.1143 0.0889,0.1143 0.05503,0 0.08467,-0.0381 0.08467,-0.1143 v -0.0466 c 0.1778,0.15663 0.389467,0.2286 0.664633,0.2286 0.478366,0 0.829733,-0.23707 0.829733,-0.5588 z m 2.287579,0.40216 c 0,-0.055 -0.0381,-0.0847 -0.118534,-0.0847 h -0.677332 v -1.59174 h -0.6731 c -0.0762,0 -0.1143,0.0296 -0.1143,0.0847 0,0.0593 0.0381,0.0889 0.1143,0.0889 h 0.499533 v 1.41817 h -0.677333 c -0.0762,0 -0.1143,0.0296 -0.1143,0.0847 0,0.0593 0.0381,0.0889 0.1143,0.0889 h 1.528232 c 0.0762,0 0.118534,-0.0296 0.118534,-0.0889 z m -0.668867,-2.27753 c 0,-0.11853 -0.09313,-0.2159 -0.211666,-0.2159 -0.1143,0 -0.211667,0.0974 -0.211667,0.21167 0,0.1143 0.09737,0.21167 0.211667,0.21167 0.1143,0 0.211666,-0.0974 0.211666,-0.20744 z m 3.172346,0.6858 c 0,-0.055 -0.0381,-0.0847 -0.1143,-0.0847 h -0.643466 c -0.0762,0 -0.1143,0.0296 -0.1143,0.0847 0,0.0593 0.0381,0.0889 0.1143,0.0889 h 0.287866 l -0.6223,1.41817 h -0.08043 l -0.634999,-1.41817 h 0.275166 c 0.08043,0 0.118533,-0.0296 0.118533,-0.0889 0,-0.055 -0.0381,-0.0847 -0.118533,-0.0847 h -0.639233 c -0.0762,0 -0.1143,0.0296 -0.1143,0.0847 0,0.0593 0.0381,0.0889 0.1143,0.0889 h 0.173567 l 0.711199,1.59173 h 0.296333 l 0.702733,-1.59173 h 0.173567 c 0.0762,0 0.1143,-0.0296 0.1143,-0.0889 z m 2.029346,0.8382 c 0,-0.19473 -0.0127,-0.27517 -0.07197,-0.41487 -0.1524,-0.35136 -0.491066,-0.56726 -0.897466,-0.56726 -0.541866,0 -0.965199,0.3937 -0.965199,0.90593 0,0.55033 0.452966,0.98637 1.024466,0.98637 0.385233,0 0.893232,-0.19897 0.893232,-0.34714 0,-0.0466 -0.0381,-0.0847 -0.08043,-0.0847 -0.02117,0 -0.0381,0.008 -0.06773,0.0296 -0.169333,0.13547 -0.478366,0.2286 -0.740833,0.2286 -0.4572,0 -0.795866,-0.2921 -0.855133,-0.7366 z m -0.1778,-0.17357 H 45.972 c 0.0762,-0.38946 0.381,-0.635 0.791633,-0.635 0.410633,0 0.7239,0.24977 0.791633,0.635 z"
       id="text4-1"
       aria-label="plosive&#10;" />
    <rect
       style="fill:none;fill-opacity:1;stroke:#002f00;stroke-width:0.394182;stroke-linejoin:round;stroke-opacity:1;paint-order:stroke fill markers"
       id="rect9"
       width="26.00404"
       height="19.858984"
       x="2.4970915"
       y="102.0974"
       ry="0.6960817" />
    <rect
       style="fill:#002f00;fill-opacity:1;stroke:none;stroke-width:0.389058;stroke-linejoin:round;stroke-opacity:1;paint-order:stroke fill markers"
       id="rect16"
       width="0.33885255"
       height="5.9080234"
       x="10.662304"
       y="107.99213"
       ry="0.21262346" />
    <path
       style="font-size:5.64444px;font-family:'TeX Gyre Cursor';-inkscape-font-specification:'TeX Gyre Cursor';text-align:center;letter-spacing:-0.116417px;text-anchor:middle;fill:#002f00;stroke-width:0.424;stroke-linejoin:round;paint-order:stroke fill markers"
       d="m 17.902818,80.582753 c 0,-0.07338 -0.0508,-0.112889 -0.1524,-0.112889 h -0.191911 v -1.591732 c 0,-0.333022 -0.265289,-0.609599 -0.592666,-0.609599 -0.231422,0 -0.417689,0.118533 -0.637822,0.400755 -0.124178,-0.270933 -0.3048,-0.400755 -0.547511,-0.400755 -0.237066,0 -0.400755,0.1016 -0.592666,0.372533 v -0.293511 h -0.417688 c -0.1016,0 -0.1524,0.03951 -0.1524,0.112889 0,0.07902 0.0508,0.118533 0.1524,0.118533 h 0.191911 v 1.890887 h -0.191911 c -0.1016,0 -0.1524,0.03951 -0.1524,0.112889 0,0.07902 0.0508,0.118533 0.146755,0.118533 h 0.615244 c 0.09596,0 0.1524,-0.03951 0.1524,-0.118533 0,-0.07338 -0.0508,-0.112889 -0.1524,-0.112889 h -0.191911 v -1.507065 c 0.214489,-0.321733 0.395111,-0.462844 0.592666,-0.462844 0.191911,0 0.366889,0.197555 0.366889,0.417688 v 1.783643 h 0.417689 c 0.101599,0 0.152399,-0.03951 0.152399,-0.118533 0,-0.07338 -0.0508,-0.112889 -0.152399,-0.112889 h -0.191911 v -1.507065 c 0.214488,-0.327378 0.383821,-0.462844 0.587021,-0.462844 0.197556,0 0.372533,0.186266 0.372533,0.400755 v 1.800576 h 0.417689 c 0.1016,0 0.1524,-0.03951 0.1524,-0.118533 z m 2.90335,-1.038577 c 0,-0.716844 -0.564444,-1.275643 -1.286932,-1.275643 -0.716844,0 -1.286933,0.564444 -1.286933,1.25871 0,0.705555 0.570089,1.264354 1.286933,1.264354 0.711199,0 1.286932,-0.558799 1.286932,-1.247421 z m -0.231422,0 c 0,0.5588 -0.474133,1.015999 -1.05551,1.015999 -0.587022,0 -1.055511,-0.457199 -1.055511,-1.032932 0,-0.570089 0.468489,-1.027288 1.055511,-1.027288 0.592666,0 1.05551,0.451555 1.05551,1.044221 z m 3.812105,1.038577 c 0,-0.07338 -0.0508,-0.112889 -0.1524,-0.112889 h -0.3048 v -3.17782 h -0.536222 c -0.1016,0 -0.1524,0.03951 -0.1524,0.112889 0,0.07902 0.0508,0.118533 0.1524,0.118533 h 0.3048 v 1.332088 c -0.276578,-0.400755 -0.603955,-0.587021 -1.027288,-0.587021 -0.671688,0 -1.219199,0.564444 -1.219199,1.25871 0,0.694266 0.547511,1.264354 1.219199,1.264354 0.423333,0 0.761999,-0.197555 1.027288,-0.592666 v 0.502355 h 0.536222 c 0.1016,0 0.1524,-0.03951 0.1524,-0.118533 z m -0.688622,-1.044221 c 0,0.564444 -0.451555,1.021643 -1.00471,1.021643 -0.564444,0 -1.010355,-0.457199 -1.010355,-1.032932 0,-0.570089 0.445911,-1.027288 1.00471,-1.027288 0.570089,0 1.010355,0.451555 1.010355,1.038577 z m 3.60326,0.03951 c 0,-0.259645 -0.01693,-0.366889 -0.09596,-0.553155 -0.2032,-0.468489 -0.654755,-0.756355 -1.196621,-0.756355 -0.722489,0 -1.286933,0.524933 -1.286933,1.20791 0,0.733777 0.603955,1.315154 1.365955,1.315154 0.513644,0 1.190977,-0.265288 1.190977,-0.462844 0,-0.06209 -0.0508,-0.112889 -0.107245,-0.112889 -0.02822,0 -0.0508,0.01129 -0.09031,0.03951 -0.225777,0.180622 -0.637822,0.304799 -0.987777,0.304799 -0.609599,0 -1.061155,-0.389466 -1.140177,-0.982132 z m -0.237066,-0.231422 h -2.111021 c 0.1016,-0.519289 0.508,-0.846666 1.055511,-0.846666 0.54751,0 0.965199,0.333022 1.05551,0.846666 z"
       id="text4-4-0-0-1"
       aria-label="mode&#10;&#10;&#10;&#10;" />
    <path
       style="font-size:4.23333px;font-family:'TeX Gyre Cursor';-inkscape-font-specification:'TeX Gyre Cursor';text-align:center;letter-spacing:-0.116417px;text-anchor:middle;fill:#002f00;stroke-width:0.424;stroke-linejoin:round;paint-order:stroke fill markers"
       d="m 4.7015057,39.640535 c 0,-0.05503 -0.0381,-0.08467 -0.1142999,-0.08467 H 3.9437396 c -0.0762,0 -0.1142999,0.02963 -0.1142999,0.08467 0,0.05927 0.0381,0.0889 0.1142999,0.0889 H 4.2316061 L 3.6093066,41.1476 H 3.5288733 L 2.8938738,39.729435 h 0.2751665 c 0.080433,0 0.1185332,-0.02963 0.1185332,-0.0889 0,-0.05503 -0.0381,-0.08467 -0.1185332,-0.08467 H 2.5298075 c -0.0762,0 -0.1142999,0.02963 -0.1142999,0.08467 0,0.05927 0.0381,0.0889 0.1142999,0.0889 H 2.703374 l 0.7111994,1.591732 h 0.2963331 l 0.7027327,-1.591732 h 0.1735666 c 0.0762,0 0.1142999,-0.02963 0.1142999,-0.0889 z m 2.2457746,0.812799 c 0,-0.537632 -0.423333,-0.956732 -0.9651992,-0.956732 -0.5376329,0 -0.9651992,0.423333 -0.9651992,0.944032 0,0.529167 0.4275663,0.948266 0.9651992,0.948266 0.5333995,0 0.9651992,-0.419099 0.9651992,-0.935566 z m -0.1735666,0 c 0,0.4191 -0.3555997,0.762 -0.7916326,0.762 -0.4402663,0 -0.7916327,-0.3429 -0.7916327,-0.7747 0,-0.427566 0.3513664,-0.770466 0.7916327,-0.770466 0.4444996,0 0.7916326,0.338667 0.7916326,0.783166 z m 2.7749409,-0.812799 c 0,-0.05503 -0.0381,-0.08467 -0.1142999,-0.08467 H 8.964455 c -0.0762,0 -0.1142999,0.02963 -0.1142999,0.08467 0,0.05927 0.0381,0.0889 0.1142999,0.0889 h 0.2116665 l -0.2920997,1.354666 -0.3767664,-1.0795 H 8.2913556 l -0.3640663,1.0795 -0.3047998,-1.354666 H 7.846856 c 0.0762,0 0.1142999,-0.02963 0.1142999,-0.0889 0,-0.05503 -0.0381,-0.08467 -0.1142999,-0.08467 H 7.3769564 c -0.0762,0 -0.1142999,0.02963 -0.1142999,0.08467 0,0.05927 0.0381,0.0889 0.1142999,0.0889 h 0.080433 l 0.3555997,1.591732 h 0.2158999 l 0.3767663,-1.096432 0.385233,1.096432 H 9.002555 l 0.3513664,-1.591732 h 0.080433 c 0.0762,0 0.1142999,-0.02963 0.1142999,-0.0889 z m 2.2119084,0.838199 c 0,-0.194733 -0.0127,-0.275166 -0.07197,-0.414866 -0.1524,-0.351366 -0.491066,-0.567266 -0.897466,-0.567266 -0.541866,0 -0.9651992,0.3937 -0.9651992,0.905932 0,0.550333 0.4529662,0.986366 1.0244662,0.986366 0.385233,0 0.893232,-0.198966 0.893232,-0.347133 0,-0.04657 -0.0381,-0.08467 -0.08043,-0.08467 -0.02117,0 -0.0381,0.0085 -0.06773,0.02963 -0.169334,0.135466 -0.478367,0.2286 -0.740833,0.2286 -0.4572,0 -0.795866,-0.2921 -0.8551327,-0.7366 z m -0.1778,-0.173566 H 9.9994973 c 0.0762,-0.389466 0.3809997,-0.635 0.7916327,-0.635 0.410633,0 0.723899,0.249767 0.791633,0.635 z m 2.550574,0.927099 c 0,-0.05503 -0.0381,-0.08467 -0.118533,-0.08467 h -0.677333 v -2.383364 h -0.668866 c -0.0762,0 -0.1143,0.02963 -0.1143,0.08467 0,0.05927 0.0381,0.0889 0.1143,0.0889 h 0.495299 V 41.1476 h -0.677332 c -0.0762,0 -0.1143,0.02963 -0.1143,0.08467 0,0.05927 0.0381,0.0889 0.1143,0.0889 h 1.528232 c 0.0762,0 0.118533,-0.02963 0.118533,-0.0889 z m 4.800582,-0.402166 c 0,-0.300567 -0.258233,-0.465667 -0.761999,-0.5461 -0.364066,-0.05927 -0.626533,-0.04233 -0.626533,-0.296333 0,-0.182033 0.237067,-0.3175 0.550333,-0.3175 0.321733,0 0.541866,0.122767 0.563033,0.313267 0.0085,0.06773 0.0381,0.09737 0.0889,0.09737 0.05503,0 0.08467,-0.0381 0.08467,-0.1143 v -0.292099 c 0,-0.08043 -0.02963,-0.118534 -0.08467,-0.118534 -0.05503,0 -0.0889,0.04657 -0.0889,0.118534 v 0.01693 c -0.148167,-0.131233 -0.338667,-0.194733 -0.579966,-0.194733 -0.414867,0 -0.7239,0.2032 -0.7239,0.478366 0,0.249767 0.143933,0.402166 0.745066,0.4699 0.4572,0.0508 0.643466,0.186266 0.643466,0.380999 0,0.224367 -0.279399,0.389467 -0.651932,0.389467 -0.359833,0 -0.651933,-0.156633 -0.651933,-0.351367 v -0.02963 c 0,-0.05503 -0.03387,-0.09313 -0.08467,-0.09313 -0.05927,0 -0.0889,0.0381 -0.0889,0.1143 v 0.351366 c 0,0.0762 0.02963,0.1143 0.0889,0.1143 0.05503,0 0.08467,-0.0381 0.08467,-0.1143 V 41.1603 c 0.1778,0.156634 0.389466,0.2286 0.664633,0.2286 0.478366,0 0.829732,-0.237066 0.829732,-0.558799 z m 2.432041,0.275166 c 0,-0.04233 -0.0381,-0.08467 -0.08043,-0.08467 -0.02117,0 -0.03387,0.0042 -0.06773,0.0254 -0.1651,0.09737 -0.465666,0.169333 -0.702733,0.169333 -0.2921,0 -0.474133,-0.1397 -0.474133,-0.3556 v -1.130299 h 0.931333 c 0.0762,0 0.1143,-0.02963 0.1143,-0.0889 0,-0.05503 -0.0381,-0.08467 -0.1143,-0.08467 h -0.931333 v -0.503766 c 0,-0.08043 -0.0254,-0.1143 -0.08467,-0.1143 -0.05927,0 -0.0889,0.0381 -0.0889,0.1143 v 0.503766 h -0.313267 c -0.08043,0 -0.118533,0.02963 -0.118533,0.08467 0,0.05927 0.0381,0.0889 0.118533,0.0889 h 0.313267 v 1.138766 c 0,0.317499 0.258233,0.520699 0.656166,0.520699 0.359833,0 0.842432,-0.160866 0.842432,-0.283633 z m 2.601375,0.127 c 0,-0.05503 -0.0381,-0.08467 -0.1143,-0.08467 h -0.2286 v -1.130299 c 0,-0.300566 -0.287866,-0.520699 -0.681566,-0.520699 -0.156633,0 -0.4318,0.05503 -0.664633,0.135466 -0.04657,0.01693 -0.07197,0.04657 -0.07197,0.0889 0,0.04657 0.0381,0.08467 0.08043,0.08467 0,0 0.0254,-0.0042 0.04233,-0.0085 0.3302,-0.1016 0.448733,-0.127 0.601133,-0.127 0.309033,0 0.520699,0.1397 0.520699,0.347133 v 0.300567 c -0.249766,-0.06773 -0.380999,-0.0889 -0.575732,-0.0889 -0.529167,0 -0.893233,0.249766 -0.893233,0.618066 0,0.321733 0.2667,0.541866 0.660399,0.541866 0.296334,0 0.550333,-0.110066 0.808566,-0.351366 v 0.283633 h 0.402167 c 0.0762,0 0.1143,-0.02963 0.1143,-0.0889 z m -0.516467,-0.385233 c -0.283633,0.2667 -0.512232,0.3683 -0.812799,0.3683 -0.2921,0 -0.482599,-0.143933 -0.482599,-0.364067 0,-0.266699 0.304799,-0.448733 0.753532,-0.448733 0.186267,0 0.389467,0.0254 0.541866,0.0635 z m 2.940041,-1.071032 c 0,-0.0381 -0.0254,-0.07197 -0.09737,-0.131234 -0.110067,-0.09313 -0.2032,-0.131233 -0.325967,-0.131233 -0.2159,0 -0.423333,0.118533 -0.817032,0.474133 v -0.4318 h -0.491067 c -0.07197,0 -0.1143,0.03387 -0.1143,0.08467 0,0.05503 0.04233,0.0889 0.1143,0.0889 h 0.3175 V 41.1476 h -0.4064 c -0.07197,0 -0.1143,0.03387 -0.1143,0.08467 0,0.05503 0.04233,0.0889 0.1143,0.0889 h 1.337733 c 0.07197,0 0.114299,-0.03387 0.114299,-0.08467 0,-0.05503 -0.04233,-0.0889 -0.114299,-0.0889 h -0.757766 v -0.935565 c 0.465666,-0.427567 0.613832,-0.524933 0.804332,-0.524933 0.09313,0 0.1778,0.04657 0.2794,0.143933 0.02963,0.02963 0.0381,0.03387 0.06773,0.03387 0.0508,0 0.0889,-0.0381 0.0889,-0.0889 z m 2.245775,1.329265 c 0,-0.04233 -0.0381,-0.08467 -0.08043,-0.08467 -0.02117,0 -0.03387,0.0042 -0.06773,0.0254 -0.1651,0.09737 -0.465666,0.169333 -0.702733,0.169333 -0.292099,0 -0.474132,-0.1397 -0.474132,-0.3556 v -1.130299 h 0.931332 c 0.0762,0 0.1143,-0.02963 0.1143,-0.0889 0,-0.05503 -0.0381,-0.08467 -0.1143,-0.08467 h -0.931332 v -0.503766 c 0,-0.08043 -0.0254,-0.1143 -0.08467,-0.1143 -0.05927,0 -0.0889,0.0381 -0.0889,0.1143 v 0.503766 h -0.313266 c -0.08043,0 -0.118534,0.02963 -0.118534,0.08467 0,0.05927 0.0381,0.0889 0.118534,0.0889 h 0.313266 v 1.138766 c 0,0.317499 0.258233,0.520699 0.656166,0.520699 0.359833,0 0.842433,-0.160866 0.842433,-0.283633 z"
       id="text4-4-0-0-1-2"
       aria-label="vowel start&#10;&#10;&#10;&#10;" />
    <path
       style="font-size:4.23333px;font-family:'TeX Gyre Cursor';-inkscape-font-specification:'TeX Gyre Cursor';text-align:center;letter-spacing:-0.116417px;text-anchor:middle;fill:#002f00;stroke-width:0.424;stroke-linejoin:round;paint-order:stroke fill markers"
       d="m 4.615571,55.853739 c 0,-0.05503 -0.0381,-0.08467 -0.1142999,-0.08467 H 3.857805 c -0.0762,0 -0.1143,0.02963 -0.1143,0.08467 0,0.05927 0.0381,0.0889 0.1143,0.0889 H 4.1456714 L 3.5233719,57.360804 H 3.4429386 L 2.8079392,55.942638 h 0.2751664 c 0.080433,0 0.1185332,-0.02963 0.1185332,-0.0889 0,-0.05503 -0.0381,-0.08467 -0.1185332,-0.08467 H 2.4438728 c -0.0762,0 -0.1142999,0.02963 -0.1142999,0.08467 0,0.05927 0.0381,0.0889 0.1142999,0.0889 h 0.1735665 l 0.7111994,1.591732 h 0.2963331 l 0.7027328,-1.591732 h 0.1735665 c 0.0762,0 0.1142999,-0.02963 0.1142999,-0.0889 z m 2.2457746,0.812799 c 0,-0.537633 -0.423333,-0.956733 -0.9651992,-0.956733 -0.5376329,0 -0.9651992,0.423333 -0.9651992,0.944033 0,0.529166 0.4275663,0.948266 0.9651992,0.948266 0.5333995,0 0.9651992,-0.4191 0.9651992,-0.935566 z m -0.1735665,0 c 0,0.419099 -0.3555997,0.761999 -0.7916327,0.761999 -0.4402663,0 -0.7916327,-0.3429 -0.7916327,-0.774699 0,-0.427566 0.3513664,-0.770466 0.7916327,-0.770466 0.4444996,0 0.7916327,0.338666 0.7916327,0.783166 z m 2.7749408,-0.812799 c 0,-0.05503 -0.0381,-0.08467 -0.1142999,-0.08467 H 8.8785204 c -0.0762,0 -0.1142999,0.02963 -0.1142999,0.08467 0,0.05927 0.0381,0.0889 0.1142999,0.0889 H 9.0901869 L 8.7980871,57.297304 8.4213208,56.217805 H 8.2054209 L 7.8413546,57.297304 7.5365548,55.942638 h 0.2243665 c 0.0762,0 0.1142999,-0.02963 0.1142999,-0.0889 0,-0.05503 -0.0381,-0.08467 -0.1142999,-0.08467 H 7.2910217 c -0.0762,0 -0.1142999,0.02963 -0.1142999,0.08467 0,0.05927 0.0381,0.0889 0.1142999,0.0889 h 0.080433 l 0.3555997,1.591732 h 0.2158998 l 0.3767663,-1.096432 0.385233,1.096432 H 8.9166203 L 9.2679867,55.942638 H 9.34842 c 0.0762,0 0.1142999,-0.02963 0.1142999,-0.0889 z m 2.2119081,0.838199 c 0,-0.194733 -0.0127,-0.275167 -0.07197,-0.414867 -0.1524,-0.351366 -0.491066,-0.567266 -0.897466,-0.567266 -0.541866,0 -0.9651989,0.3937 -0.9651989,0.905933 0,0.550333 0.4529659,0.986366 1.0244659,0.986366 0.385233,0 0.893233,-0.198967 0.893233,-0.347133 0,-0.04657 -0.0381,-0.08467 -0.08043,-0.08467 -0.02117,0 -0.0381,0.0085 -0.06773,0.02963 -0.169333,0.135467 -0.478366,0.2286 -0.740833,0.2286 -0.457199,0 -0.7958657,-0.2921 -0.8551324,-0.736599 z m -0.1778,-0.173567 H 9.9135626 c 0.0762,-0.389466 0.3809994,-0.634999 0.7916324,-0.634999 0.410633,0 0.7239,0.249766 0.791633,0.634999 z m 2.550574,0.927099 c 0,-0.05503 -0.0381,-0.08467 -0.118533,-0.08467 H 13.251536 V 54.977439 H 12.58267 c -0.0762,0 -0.1143,0.02963 -0.1143,0.08467 0,0.05927 0.0381,0.0889 0.1143,0.0889 h 0.4953 v 2.209798 h -0.677333 c -0.0762,0 -0.1143,0.02963 -0.1143,0.08467 0,0.05927 0.0381,0.0889 0.1143,0.0889 h 1.528232 c 0.0762,0 0.118533,-0.02963 0.118533,-0.0889 z m 4.897949,-0.753532 c 0,-0.194733 -0.0127,-0.275167 -0.07197,-0.414867 -0.1524,-0.351366 -0.491067,-0.567266 -0.897466,-0.567266 -0.541867,0 -0.9652,0.3937 -0.9652,0.905933 0,0.550333 0.452967,0.986366 1.024466,0.986366 0.385233,0 0.893233,-0.198967 0.893233,-0.347133 0,-0.04657 -0.0381,-0.08467 -0.08043,-0.08467 -0.02117,0 -0.0381,0.0085 -0.06773,0.02963 -0.169333,0.135467 -0.478366,0.2286 -0.740832,0.2286 -0.4572,0 -0.795866,-0.2921 -0.855133,-0.736599 z m -0.1778,-0.173567 h -1.583265 c 0.0762,-0.389466 0.381,-0.634999 0.791633,-0.634999 0.410633,0 0.723899,0.249766 0.791632,0.634999 z m 2.690275,0.927099 c 0,-0.05503 -0.0381,-0.08467 -0.1143,-0.08467 h -0.143934 v -1.075266 c 0,-0.325966 -0.287866,-0.575733 -0.664632,-0.575733 -0.262467,0 -0.414867,0.08043 -0.6604,0.351367 v -0.2921 h -0.3175 c -0.0762,0 -0.114299,0.02963 -0.114299,0.08467 0,0.05927 0.0381,0.0889 0.114299,0.0889 h 0.143934 v 1.418166 h -0.1905 c -0.08043,0 -0.118533,0.02963 -0.118533,0.08467 0,0.05927 0.0381,0.0889 0.118533,0.0889 h 0.554566 c 0.0762,0 0.1143,-0.02963 0.1143,-0.0889 0,-0.05503 -0.0381,-0.08467 -0.1143,-0.08467 h -0.1905 v -1.071033 c 0.1905,-0.253999 0.313267,-0.406399 0.643466,-0.406399 0.262467,0 0.508,0.160866 0.508,0.431799 v 1.045633 h -0.143933 c -0.0762,0 -0.1143,0.02963 -0.1143,0.08467 0,0.05927 0.0381,0.0889 0.1143,0.0889 h 0.461433 c 0.0762,0 0.1143,-0.02963 0.1143,-0.0889 z m 2.601374,0 c 0,-0.05503 -0.0381,-0.08467 -0.1143,-0.08467 h -0.2286 v -2.383365 h -0.402166 c -0.0762,0 -0.1143,0.02963 -0.1143,0.08467 0,0.05927 0.0381,0.0889 0.1143,0.0889 h 0.2286 v 0.999066 c -0.207434,-0.300567 -0.452967,-0.440267 -0.770466,-0.440267 -0.503767,0 -0.9144,0.423333 -0.9144,0.944033 0,0.520699 0.410633,0.948266 0.9144,0.948266 0.317499,0 0.571499,-0.148167 0.770466,-0.4445 V 57.53437 H 23.9449 c 0.0762,0 0.1143,-0.02963 0.1143,-0.0889 z m -0.516466,-0.783166 c 0,0.423333 -0.338667,0.766233 -0.753533,0.766233 -0.423333,0 -0.757766,-0.3429 -0.757766,-0.774699 0,-0.427566 0.334433,-0.770466 0.753533,-0.770466 0.427566,0 0.757766,0.338666 0.757766,0.778932 z"
       id="text4-4-0-0-1-2-3"
       aria-label="vowel end&#10;&#10;&#10;&#10;&#10;" />
    <path
       style="font-size:4.23333px;font-family:'TeX Gyre Cursor';-inkscape-font-specification:'TeX Gyre Cursor';text-align:center;letter-spacing:-0.116417px;text-anchor:middle;fill:#002f00;stroke-width:0.424;stroke-linejoin:round;paint-order:stroke fill markers"
       d="m 4.6126288,23.476778 c 0,-0.503767 -0.397933,-0.939799 -0.9228659,-0.939799 -0.3217331,0 -0.5333996,0.114299 -0.757766,0.406399 V 22.596245 H 2.5298305 c -0.0762,0 -0.1142999,0.02963 -0.1142999,0.08467 0,0.05927 0.0381,0.0889 0.1142999,0.0889 h 0.2285998 v 2.205564 H 2.5298305 c -0.0762,0 -0.1142999,0.02963 -0.1142999,0.08467 0,0.05927 0.0381,0.0889 0.1142999,0.0889 h 0.8170327 c 0.0762,0 0.1142999,-0.02963 0.1142999,-0.0889 0,-0.05503 -0.0381,-0.08467 -0.1142999,-0.08467 H 2.9319969 v -0.956732 c 0.1947331,0.2794 0.4317996,0.4064 0.757766,0.4064 0.5206996,0 0.9228659,-0.4445 0.9228659,-0.948266 z m -0.1735665,0.0085 c 0,0.3937 -0.3386664,0.766233 -0.7535327,0.766233 -0.4190997,0 -0.7535327,-0.372533 -0.7535327,-0.774699 0,-0.397933 0.334433,-0.766233 0.7535327,-0.766233 0.4275663,0 0.7535327,0.364066 0.7535327,0.774699 z m 2.4574411,0.7874 c 0,-0.05503 -0.0381,-0.08467 -0.1185333,-0.08467 H 6.1006374 V 21.804612 H 5.4317712 c -0.0762,0 -0.1142999,0.02963 -0.1142999,0.08467 0,0.05927 0.0381,0.0889 0.1142999,0.0889 h 0.4952996 v 2.209798 H 5.2497381 c -0.0762,0 -0.1142999,0.02963 -0.1142999,0.08467 0,0.05927 0.0381,0.0889 0.1142999,0.0889 h 1.528232 c 0.0762,0 0.1185333,-0.02963 0.1185333,-0.0889 z m 2.508241,-0.778933 c 0,-0.537633 -0.423333,-0.956732 -0.9651992,-0.956732 -0.5376329,0 -0.9651992,0.423333 -0.9651992,0.944032 0,0.529166 0.4275663,0.948266 0.9651992,0.948266 0.5333996,0 0.9651992,-0.4191 0.9651992,-0.935566 z m -0.1735665,0 c 0,0.4191 -0.3555997,0.761999 -0.7916327,0.761999 -0.4402663,0 -0.7916327,-0.342899 -0.7916327,-0.774699 0,-0.427566 0.3513664,-0.770466 0.7916327,-0.770466 0.4444996,0 0.7916327,0.338666 0.7916327,0.783166 z m 2.4659081,0.376766 c 0,-0.300566 -0.258233,-0.465666 -0.762,-0.546099 -0.364066,-0.05927 -0.626533,-0.04233 -0.626533,-0.296333 0,-0.182033 0.237067,-0.3175 0.550333,-0.3175 0.321733,0 0.541867,0.122767 0.563033,0.313266 0.0085,0.06773 0.0381,0.09737 0.0889,0.09737 0.05503,0 0.08467,-0.0381 0.08467,-0.1143 v -0.2921 c 0,-0.08043 -0.02963,-0.118533 -0.08467,-0.118533 -0.05503,0 -0.0889,0.04657 -0.0889,0.118533 v 0.01693 c -0.148166,-0.131234 -0.338666,-0.194733 -0.579966,-0.194733 -0.414866,0 -0.723899,0.203199 -0.723899,0.478366 0,0.249766 0.143933,0.402166 0.745066,0.469899 0.457199,0.0508 0.643466,0.186267 0.643466,0.381 0,0.224367 -0.2794,0.389466 -0.651933,0.389466 -0.359833,0 -0.651933,-0.156633 -0.651933,-0.351366 v -0.02963 c 0,-0.05503 -0.03387,-0.09313 -0.08467,-0.09313 -0.05927,0 -0.0889,0.0381 -0.0889,0.1143 v 0.351367 c 0,0.0762 0.02963,0.1143 0.0889,0.1143 0.05503,0 0.08467,-0.0381 0.08467,-0.1143 v -0.04657 c 0.1778,0.156633 0.389467,0.2286 0.664633,0.2286 0.478366,0 0.829733,-0.237067 0.829733,-0.5588 z m 2.470141,0.402167 c 0,-0.05503 -0.0381,-0.08467 -0.118534,-0.08467 h -0.677332 v -1.591732 h -0.6731 c -0.0762,0 -0.1143,0.02963 -0.1143,0.08467 0,0.05927 0.0381,0.0889 0.1143,0.0889 h 0.499533 v 1.418165 h -0.677333 c -0.0762,0 -0.114299,0.02963 -0.114299,0.08467 0,0.05927 0.0381,0.0889 0.114299,0.0889 h 1.528232 c 0.0762,0 0.118534,-0.02963 0.118534,-0.0889 z m -0.668866,-2.277532 c 0,-0.118533 -0.09313,-0.2159 -0.211667,-0.2159 -0.1143,0 -0.211666,0.09737 -0.211666,0.211667 0,0.1143 0.09737,0.211666 0.211666,0.211666 0.1143,0 0.211667,-0.09737 0.211667,-0.207433 z m 3.354907,0.6858 c 0,-0.05503 -0.0381,-0.08467 -0.1143,-0.08467 h -0.643466 c -0.0762,0 -0.1143,0.02963 -0.1143,0.08467 0,0.05927 0.0381,0.0889 0.1143,0.0889 h 0.287866 l -0.622299,1.418165 h -0.08043 l -0.634999,-1.418165 h 0.275166 c 0.08043,0 0.118533,-0.02963 0.118533,-0.0889 0,-0.05503 -0.0381,-0.08467 -0.118533,-0.08467 h -0.639233 c -0.0762,0 -0.114299,0.02963 -0.114299,0.08467 0,0.05927 0.0381,0.0889 0.114299,0.0889 h 0.173567 l 0.711199,1.591732 h 0.296333 l 0.702733,-1.591732 h 0.173567 c 0.0762,0 0.1143,-0.02963 0.1143,-0.0889 z m 2.211908,0.838199 c 0,-0.194733 -0.0127,-0.275166 -0.07197,-0.414866 -0.1524,-0.351367 -0.491066,-0.567266 -0.897466,-0.567266 -0.541866,0 -0.965199,0.393699 -0.965199,0.905932 0,0.550333 0.452966,0.986366 1.024466,0.986366 0.385233,0 0.893232,-0.198967 0.893232,-0.347133 0,-0.04657 -0.0381,-0.08467 -0.08043,-0.08467 -0.02117,0 -0.0381,0.0085 -0.06773,0.02963 -0.169334,0.135466 -0.478367,0.228599 -0.740833,0.228599 -0.4572,0 -0.795866,-0.292099 -0.855133,-0.736599 z m -0.1778,-0.173566 H 17.30411 c 0.0762,-0.389467 0.381,-0.635 0.791633,-0.635 0.410633,0 0.723899,0.249767 0.791633,0.635 z"
       id="text4-4-0-0-1-2-3-7"
       aria-label="plosive&#10;&#10;&#10;&#10;&#10;&#10;" />
    <path
       style="font-size:2.82222px;font-family:'TeX Gyre Cursor';-inkscape-font-specification:'TeX Gyre Cursor';text-align:center;letter-spacing:-0.116417px;text-anchor:middle;fill:#002f00;stroke-width:0.424;stroke-linejoin:round;paint-order:stroke fill markers"
       d="m 4.3999093,94.034744 c 0,-0.200378 -0.1721555,-0.310444 -0.5079997,-0.364066 -0.2427109,-0.03951 -0.4176885,-0.02822 -0.4176885,-0.197556 0,-0.121355 0.1580443,-0.211666 0.3668886,-0.211666 0.2144887,0 0.3612441,0.08184 0.3753552,0.208844 0.00564,0.04516 0.0254,0.06491 0.059267,0.06491 0.036689,0 0.056444,-0.0254 0.056444,-0.0762 v -0.194733 c 0,-0.05362 -0.019756,-0.07902 -0.056444,-0.07902 -0.036689,0 -0.059267,0.03104 -0.059267,0.07902 v 0.01129 c -0.098778,-0.08749 -0.2257776,-0.129822 -0.3866441,-0.129822 -0.2765776,0 -0.4825996,0.135466 -0.4825996,0.318911 0,0.166511 0.095955,0.268111 0.4967107,0.313266 0.3047998,0.03387 0.4289774,0.124178 0.4289774,0.254 0,0.149577 -0.1862665,0.259644 -0.4346218,0.259644 -0.2398888,0 -0.4346219,-0.104422 -0.4346219,-0.234244 v -0.01976 c 0,-0.03669 -0.022578,-0.06209 -0.056444,-0.06209 -0.039511,0 -0.059267,0.0254 -0.059267,0.0762 v 0.234245 c 0,0.0508 0.019756,0.0762 0.059267,0.0762 0.036689,0 0.056444,-0.0254 0.056444,-0.0762 v -0.03105 c 0.1185332,0.104422 0.2596442,0.1524 0.4430885,0.1524 0.3189109,0 0.5531552,-0.158044 0.5531552,-0.372533 z m 1.7010884,-0.262466 c 0,-0.335845 -0.2652887,-0.626533 -0.615244,-0.626533 -0.2144887,0 -0.3555997,0.0762 -0.5051774,0.270933 V 93.185256 H 4.7124654 c -0.0508,0 -0.0762,0.01976 -0.0762,0.05644 0,0.03951 0.0254,0.05927 0.0762,0.05927 h 0.1523999 v 1.470376 H 4.7124654 c -0.0508,0 -0.0762,0.01976 -0.0762,0.05644 0,0.03951 0.0254,0.05927 0.0762,0.05927 h 0.5446885 c 0.0508,0 0.0762,-0.01976 0.0762,-0.05927 0,-0.03669 -0.0254,-0.05644 -0.0762,-0.05644 H 4.9805763 v -0.637821 c 0.1298221,0.186266 0.2878664,0.270933 0.5051774,0.270933 0.3471331,0 0.615244,-0.296333 0.615244,-0.632177 z m -0.1157111,0.0056 c 0,0.262466 -0.2257776,0.510822 -0.5023551,0.510822 -0.2793998,0 -0.5023552,-0.248356 -0.5023552,-0.516466 0,-0.265289 0.2229554,-0.510822 0.5023552,-0.510822 0.2850442,0 0.5023551,0.242711 0.5023551,0.516466 z m 1.6333552,0.02258 c 0,-0.129822 -0.00847,-0.183445 -0.047978,-0.276578 -0.1015999,-0.234244 -0.3273775,-0.378177 -0.5983106,-0.378177 -0.3612442,0 -0.6434662,0.262466 -0.6434662,0.603955 0,0.366888 0.3019776,0.657577 0.6829773,0.657577 0.256822,0 0.5954884,-0.132644 0.5954884,-0.231422 0,-0.03104 -0.0254,-0.05644 -0.053622,-0.05644 -0.014111,0 -0.0254,0.0056 -0.045155,0.01976 -0.1128888,0.09031 -0.3189109,0.1524 -0.4938885,0.1524 -0.3047998,0 -0.5305774,-0.194733 -0.5700885,-0.491066 z M 7.5001085,93.684789 H 6.4445982 c 0.0508,-0.259644 0.2539998,-0.423333 0.5277552,-0.423333 0.2737553,0 0.4825996,0.166511 0.5277551,0.423333 z m 1.7547109,0.618066 c 0,-0.03669 -0.0254,-0.05644 -0.0762,-0.05644 H 9.0262195 v -0.753533 c 0,-0.200378 -0.1919109,-0.347133 -0.4543774,-0.347133 -0.1044221,0 -0.2878664,0.03669 -0.4430885,0.09031 -0.031045,0.01129 -0.047978,0.03104 -0.047978,0.05927 0,0.03105 0.0254,0.05644 0.053622,0.05644 0,0 0.016933,-0.0028 0.028222,-0.0056 0.2201332,-0.06773 0.2991553,-0.08467 0.4007553,-0.08467 0.206022,0 0.347133,0.09313 0.347133,0.231422 v 0.200377 c -0.166511,-0.04515 -0.2539998,-0.05927 -0.3838219,-0.05927 -0.3527775,0 -0.5954884,0.166511 -0.5954884,0.412044 0,0.214489 0.1777998,0.361244 0.4402663,0.361244 0.1975554,0 0.3668886,-0.07338 0.539044,-0.234244 v 0.189089 h 0.2681109 c 0.0508,0 0.0762,-0.01976 0.0762,-0.05927 z M 8.9105085,94.046033 c -0.1890887,0.1778 -0.3414886,0.245533 -0.5418662,0.245533 -0.1947332,0 -0.3217331,-0.09596 -0.3217331,-0.242711 0,-0.1778 0.2031998,-0.299155 0.5023552,-0.299155 0.1241776,0 0.2596442,0.01693 0.3612441,0.04233 z m 1.9212215,0.256822 c 0,-0.03669 -0.0254,-0.05644 -0.0762,-0.05644 h -0.127 l -0.5842,-0.575733 0.443089,-0.369711 h 0.132644 c 0.0508,0 0.0762,-0.01976 0.0762,-0.05927 0,-0.03669 -0.0254,-0.05644 -0.0762,-0.05644 h -0.366888 c -0.0508,0 -0.0762,0.01976 -0.0762,0.05644 0,0.03951 0.0254,0.05927 0.0762,0.05927 h 0.06209 L 9.8270195,93.715833 V 92.657501 H 9.5589086 c -0.0508,0 -0.0762,0.01976 -0.0762,0.05644 0,0.03951 0.0254,0.05927 0.0762,0.05927 h 0.1523999 v 1.473199 H 9.5589086 c -0.0508,0 -0.0762,0.01976 -0.0762,0.05644 0,0.03951 0.0254,0.05927 0.0762,0.05927 h 0.2681109 v -0.508 l 0.1298221,-0.110067 0.5079994,0.502356 h -0.07902 c -0.0508,0 -0.0762,0.01976 -0.0762,0.05644 0,0.03951 0.0254,0.05927 0.0762,0.05927 h 0.369711 c 0.0508,0 0.0762,-0.01976 0.0762,-0.05927 z"
       id="text4-4-0-0-1-3"
       aria-label="speak" />
    <path
       style="font-size:2.82222px;font-family:'TeX Gyre Cursor';-inkscape-font-specification:'TeX Gyre Cursor';text-align:center;letter-spacing:-0.116417px;text-anchor:middle;fill:#002f00;stroke-width:0.424;stroke-linejoin:round;paint-order:stroke fill markers"
       d="m 13.624984,94.043213 c 0,-0.200378 -0.172155,-0.310445 -0.507999,-0.364067 -0.242711,-0.03951 -0.417689,-0.02822 -0.417689,-0.197555 0,-0.121356 0.158045,-0.211667 0.366889,-0.211667 0.214489,0 0.361244,0.08185 0.375355,0.208845 0.0056,0.04515 0.0254,0.06491 0.05927,0.06491 0.03669,0 0.05644,-0.0254 0.05644,-0.0762 v -0.194733 c 0,-0.05362 -0.01975,-0.07902 -0.05644,-0.07902 -0.03669,0 -0.05927,0.03104 -0.05927,0.07902 v 0.01129 c -0.09878,-0.08749 -0.225777,-0.129822 -0.386644,-0.129822 -0.276578,0 -0.4826,0.135467 -0.4826,0.318911 0,0.166511 0.09596,0.268111 0.496711,0.313267 0.3048,0.03387 0.428978,0.124177 0.428978,0.253999 0,0.149578 -0.186267,0.259645 -0.434622,0.259645 -0.239889,0 -0.434622,-0.104422 -0.434622,-0.234245 v -0.01976 c 0,-0.03669 -0.02258,-0.06209 -0.05645,-0.06209 -0.03951,0 -0.05927,0.0254 -0.05927,0.0762 v 0.234244 c 0,0.0508 0.01975,0.0762 0.05927,0.0762 0.03669,0 0.05645,-0.0254 0.05645,-0.0762 v -0.03104 c 0.118533,0.104422 0.259644,0.1524 0.443088,0.1524 0.318911,0 0.553155,-0.158045 0.553155,-0.372533 z m 1.607956,0.268111 c 0,-0.03669 -0.0254,-0.05644 -0.07902,-0.05644 h -0.451555 v -1.061155 h -0.448733 c -0.0508,0 -0.0762,0.01976 -0.0762,0.05644 0,0.03951 0.0254,0.05927 0.0762,0.05927 h 0.333022 v 0.945444 h -0.451555 c -0.0508,0 -0.0762,0.01976 -0.0762,0.05644 0,0.03951 0.0254,0.05927 0.0762,0.05927 h 1.018821 c 0.0508,0 0.07902,-0.01976 0.07902,-0.05927 z m -0.445911,-1.518355 c 0,-0.07902 -0.06209,-0.143933 -0.141111,-0.143933 -0.0762,0 -0.141111,0.06491 -0.141111,0.141111 0,0.0762 0.06491,0.141111 0.141111,0.141111 0.0762,0 0.141111,-0.06491 0.141111,-0.138289 z m 2.115955,1.518355 c 0,-0.03669 -0.0254,-0.05644 -0.0762,-0.05644 h -0.09596 v -0.716844 c 0,-0.217311 -0.191911,-0.383822 -0.443088,-0.383822 -0.174978,0 -0.276578,0.05362 -0.440267,0.234245 v -0.194734 h -0.211666 c -0.0508,0 -0.0762,0.01976 -0.0762,0.05644 0,0.03951 0.0254,0.05927 0.0762,0.05927 h 0.09596 v 0.945444 h -0.127 c -0.05362,0 -0.07902,0.01976 -0.07902,0.05644 0,0.03951 0.0254,0.05927 0.07902,0.05927 h 0.369711 c 0.0508,0 0.0762,-0.01976 0.0762,-0.05927 0,-0.03669 -0.0254,-0.05644 -0.0762,-0.05644 h -0.127 v -0.714021 c 0.127,-0.169334 0.208845,-0.270934 0.428978,-0.270934 0.174977,0 0.338666,0.107245 0.338666,0.287867 v 0.697088 h -0.09596 c -0.0508,0 -0.0762,0.01976 -0.0762,0.05644 0,0.03951 0.0254,0.05927 0.0762,0.05927 h 0.307622 c 0.0508,0 0.0762,-0.01976 0.0762,-0.05927 z m 1.636177,-1.061155 c 0,-0.03669 -0.0254,-0.05644 -0.0762,-0.05644 H 18.19485 v 0.234245 c -0.127,-0.189089 -0.276577,-0.273756 -0.482599,-0.273756 -0.318911,0 -0.581378,0.301978 -0.581378,0.629355 0,0.327378 0.262467,0.629356 0.581378,0.629356 0.2032,0 0.355599,-0.08749 0.482599,-0.273756 v 0.293511 c 0,0.191911 -0.1524,0.347133 -0.344311,0.347133 h -0.327377 c -0.0508,0 -0.0762,0.01976 -0.0762,0.05644 0,0.03951 0.0254,0.05927 0.0762,0.05927 h 0.321733 c 0.141111,0 0.245533,-0.04798 0.344311,-0.1524 0.08467,-0.09031 0.121355,-0.1778 0.121355,-0.293511 v -1.140177 h 0.1524 c 0.0508,0 0.0762,-0.01975 0.0762,-0.05927 z m -0.344311,0.539044 c 0,0.262466 -0.211666,0.507999 -0.474133,0.507999 -0.262466,0 -0.474133,-0.245533 -0.474133,-0.513644 0,-0.265288 0.208845,-0.513644 0.474133,-0.513644 0.268111,0 0.474133,0.245534 0.474133,0.519289 z"
       id="text4-4-0-0-1-3-4"
       aria-label="sing&#10;&#10;&#10;&#10;" />
    <path
       style="fill:#000000;fill-opacity:0;stroke:#002f00;stroke-width:0.194;stroke-linecap:round;stroke-linejoin:round;stroke-dasharray:none;stroke-opacity:0.365132;paint-order:stroke fill markers"
       d="M 40.928443,61.103945 9.649409,61.091085"
       id="path16" />
    <rect
       style="fill:none;fill-opacity:1;stroke:#002f00;stroke-width:0.420637;stroke-linejoin:round;stroke-opacity:1;paint-order:stroke fill markers"
       id="rect9-1"
       width="25.923615"
       height="22.684172"
       x="2.5642884"
       y="75.59948"
       ry="0.79510802" />
    <path
       style="font-size:4.23333px;font-family:'TeX Gyre Cursor';-inkscape-font-specification:'TeX Gyre Cursor';text-align:center;letter-spacing:-0.116417px;text-anchor:middle;fill:#002f00;stroke-width:0.424;stroke-linejoin:round;paint-order:stroke fill markers"
       d="m 4.5695964,70.87198 c 0,-0.05503 -0.0381,-0.08467 -0.1142999,-0.08467 H 4.0531302 V 71.13868 C 3.8626303,70.855047 3.6382638,70.728047 3.3292308,70.728047 c -0.4783663,0 -0.872066,0.452966 -0.872066,0.944033 0,0.491066 0.3936997,0.944032 0.872066,0.944032 0.3047997,0 0.5333995,-0.131233 0.7238994,-0.410633 v 0.440267 c 0,0.287866 -0.2285999,0.520699 -0.5164663,0.520699 H 3.0455977 c -0.0762,0 -0.1142999,0.02963 -0.1142999,0.08467 0,0.05927 0.0381,0.0889 0.1142999,0.0889 h 0.4825996 c 0.2116665,0 0.3682997,-0.07197 0.5164662,-0.2286 0.1269999,-0.135467 0.1820332,-0.2667 0.1820332,-0.440266 V 70.96088 h 0.2285998 c 0.0762,0 0.1142999,-0.02963 0.1142999,-0.0889 z m -0.5164662,0.808566 c 0,0.3937 -0.3174998,0.762 -0.7111994,0.762 -0.3936997,0 -0.7111994,-0.3683 -0.7111994,-0.770466 0,-0.397933 0.3132664,-0.770466 0.7111994,-0.770466 0.4021663,0 0.7111994,0.368299 0.7111994,0.778932 z m 2.8511407,0.783166 c 0,-0.05503 -0.0381,-0.08467 -0.1142999,-0.08467 H 6.5613712 v -1.130299 c 0,-0.300567 -0.2878664,-0.5207 -0.6815661,-0.5207 -0.1566332,0 -0.4317996,0.05503 -0.6646328,0.135467 -0.046567,0.01693 -0.071967,0.04657 -0.071967,0.0889 0,0.04657 0.0381,0.08467 0.080433,0.08467 0,0 0.0254,-0.0042 0.042333,-0.0085 0.3301997,-0.1016 0.4487329,-0.127 0.6011328,-0.127 0.3090331,0 0.5206996,0.1397 0.5206996,0.347133 v 0.300566 c -0.2497665,-0.06773 -0.3809997,-0.0889 -0.5757329,-0.0889 -0.5291662,0 -0.8932326,0.249767 -0.8932326,0.618066 0,0.321733 0.2666998,0.541867 0.6603995,0.541867 0.2963331,0 0.5503329,-0.110067 0.808566,-0.351367 v 0.283633 H 6.789971 c 0.0762,0 0.1142999,-0.02963 0.1142999,-0.0889 z M 6.3878047,72.078479 c -0.2836331,0.2667 -0.5122329,0.3683 -0.8127993,0.3683 -0.2920998,0 -0.4825996,-0.143933 -0.4825996,-0.364066 0,-0.2667 0.3047997,-0.448733 0.7535327,-0.448733 0.1862665,0 0.3894663,0.0254 0.5418662,0.0635 z m 2.7622408,0.258233 c 0,-0.04233 -0.0381,-0.08467 -0.080433,-0.08467 -0.021167,0 -0.033867,0.0042 -0.067733,0.0254 -0.1650999,0.09737 -0.4656663,0.169333 -0.7027328,0.169333 -0.2920997,0 -0.4741329,-0.1397 -0.4741329,-0.3556 V 70.96088 h 0.9313325 c 0.0762,0 0.1142999,-0.02963 0.1142999,-0.0889 0,-0.05503 -0.0381,-0.08467 -0.1142999,-0.08467 H 7.8250133 v -0.503766 c 0,-0.08043 -0.0254,-0.1143 -0.084667,-0.1143 -0.059267,0 -0.0889,0.0381 -0.0889,0.1143 v 0.503766 H 7.3381804 c -0.080433,0 -0.1185333,0.02963 -0.1185333,0.08467 0,0.05927 0.0381,0.0889 0.1185333,0.0889 h 0.3132664 v 1.138766 c 0,0.3175 0.2582331,0.5207 0.6561661,0.5207 0.359833,0 0.8424326,-0.160867 0.8424326,-0.283634 z M 11.66252,71.71018 c 0,-0.194733 -0.0127,-0.275167 -0.07197,-0.414867 -0.1524,-0.351366 -0.491066,-0.567266 -0.897466,-0.567266 -0.541866,0 -0.9651988,0.3937 -0.9651988,0.905933 0,0.550333 0.4529658,0.986366 1.0244658,0.986366 0.385233,0 0.893233,-0.198967 0.893233,-0.347133 0,-0.04657 -0.0381,-0.08467 -0.08043,-0.08467 -0.02117,0 -0.0381,0.0085 -0.06773,0.02963 -0.169333,0.135467 -0.478366,0.2286 -0.740833,0.2286 -0.457199,0 -0.7958657,-0.2921 -0.8551323,-0.736599 z m -0.1778,-0.173567 H 9.9014547 c 0.0762,-0.389466 0.3809993,-0.634999 0.7916323,-0.634999 0.410633,0 0.7239,0.249766 0.791633,0.634999 z"
       id="text4-4-0-7"
       aria-label="gate&#10;&#10;" />
  </g>
  <g
     inkscape:groupmode="layer"
     id="layer2"
     inkscape:label="components"
     style="display:none">
    <ellipse
       style="fill:#ff0000;fill-opacity:1;stroke-width:0.424;stroke-linejoin:round;paint-order:stroke fill markers"
       id="path3-6"
       cx="45.312569"
       cy="40.469875"
       rx="1.312567"
       ry="1.3278294"
       inkscape:label="vowel start modulation" />
    <ellipse
       style="fill:#ff0000;fill-opacity:1;stroke-width:0.424;stroke-linejoin:round;paint-order:stroke fill markers"
       id="path3-6-1"
       cx="45.312569"
       cy="55.907974"
       rx="1.312567"
       ry="1.3278294"
       inkscape:label="vowel end modulation" />
    <ellipse
       style="fill:#ff0000;fill-opacity:1;stroke-width:0.424;stroke-linejoin:round;paint-order:stroke fill markers"
       id="path2"
       cx="25.280378"
       cy="17.739693"
       rx="23.070427"
       ry="1.1599429"
       inkscape:label="plosive" />
    <ellipse
       style="fill:#ff0000;fill-opacity:1;stroke-width:1.50298;stroke-linejoin:round;paint-order:stroke fill markers"
       id="path3-6-1-1"
       cx="10.83173"
       cy="113.32365"
       rx="4.6365495"
       ry="4.7233019"
       inkscape:label="root" />
    <ellipse
       style="fill:#ff0000;fill-opacity:1;stroke-width:0.424;stroke-linejoin:round;paint-order:stroke fill markers"
       id="path2-2"
       cx="25.429573"
       cy="34.396912"
       rx="23.070427"
       ry="1.1599429"
       inkscape:label="vowel start" />
    <ellipse
       style="fill:#ff0000;fill-opacity:1;stroke-width:0.424;stroke-linejoin:round;paint-order:stroke fill markers"
       id="path2-2-9"
       cx="25.4"
       cy="50.22398"
       rx="23.070427"
       ry="1.1599429"
       inkscape:label="vowel end" />
    <ellipse
       style="fill:#ff0000;fill-opacity:1;stroke-width:0.424;stroke-linejoin:round;paint-order:stroke fill markers"
       id="path3"
       cx="45.312569"
       cy="23.107042"
       rx="1.312567"
       ry="1.3278294"
       inkscape:label="plosive modulation" />
    <ellipse
       style="fill:#00ff00;fill-opacity:1;stroke-width:0.424;stroke-linejoin:round;paint-order:stroke fill markers"
       id="path3-9"
       cx="38.830063"
       cy="23.107042"
       rx="1.312567"
       ry="1.3278294"
       inkscape:label="plosive cv" />
    <ellipse
       style="fill:#00ff00;fill-opacity:1;stroke-width:0.424;stroke-linejoin:round;paint-order:stroke fill markers"
       id="path3-9-7"
       cx="38.830063"
       cy="40.469875"
       rx="1.312567"
       ry="1.3278294"
       inkscape:label="vowel start cv" />
    <ellipse
       style="fill:#00ff00;fill-opacity:1;stroke-width:0.424;stroke-linejoin:round;paint-order:stroke fill markers"
       id="path3-9-7-5"
       cx="38.830063"
       cy="55.907974"
       rx="1.312567"
       ry="1.3278294"
       inkscape:label="vowel end cv" />
    <ellipse
       style="fill:#ff00ff;fill-opacity:1;stroke-width:0.424;stroke-linejoin:round;paint-order:stroke fill markers"
       id="path3-9-7-5-7"
       cx="32.347553"
       cy="23.107042"
       rx="1.312567"
       ry="1.3278294"
       inkscape:label="plosive active" />
    <ellipse
       style="fill:#ff00ff;fill-opacity:1;stroke-width:0.424;stroke-linejoin:round;paint-order:stroke fill markers"
       id="path3-9-7-5-7-9"
       cx="32.347553"
       cy="40.469875"
       rx="1.312567"
       ry="1.3278294"
       inkscape:label="vowel start active" />
    <ellipse
       style="fill:#ff00ff;fill-opacity:1;stroke-width:0.424;stroke-linejoin:round;paint-order:stroke fill markers"
       id="path3-9-7-5-7-9-4"
       cx="32.347553"
       cy="55.907974"
       rx="1.312567"
       ry="1.3278294"
       inkscape:label="vowel end active" />
    <circle
       style="fill:#0000ff;fill-opacity:1;stroke-width:0.424;stroke-linejoin:round;paint-order:stroke fill markers"
       id="path6"
       cx="40.00029"
       cy="82.128532"
       r="3.2808139"
       inkscape:label="vowel only" />
    <circle
       style="fill:#0000ff;fill-opacity:1;stroke-width:0.424;stroke-linejoin:round;paint-order:stroke fill markers"
       id="path6-7"
       cx="39.861031"
       cy="96.32489"
       r="3.2808139"
       inkscape:label="plosive only" />
    <circle
       style="fill:#0000ff;fill-opacity:1;stroke-width:0.424;stroke-linejoin:round;paint-order:stroke fill markers"
       id="path6-7-2"
       cx="39.861031"
       cy="110.52125"
       r="3.2808139"
       inkscape:label="mix" />
    <ellipse
       style="fill:#00ff00;fill-opacity:1;stroke-width:0.424;stroke-linejoin:round;paint-order:stroke fill markers"
       id="path7"
       cx="20.343567"
       cy="65.374557"
       rx="2.594609"
       ry="2.5335593"
       inkscape:label="frequency" />
    <ellipse
       style="fill:#00ff00;fill-opacity:1;stroke-width:0.424;stroke-linejoin:round;paint-order:stroke fill markers"
       id="path7-6"
       cx="7.0598426"
       cy="65.374557"
       rx="2.594609"
       ry="2.5335593"
       inkscape:label="gate" />
    <ellipse
       style="fill:#00ff00;fill-opacity:1;stroke-width:0.424;stroke-linejoin:round;paint-order:stroke fill markers"
       id="path7-0"
       cx="23.55423"
       cy="117.25331"
       rx="2.594609"
       ry="2.5335593"
       inkscape:label="root modulation" />
    <ellipse
       style="fill:#ff0000;fill-opacity:1;stroke-width:1.50298;stroke-linejoin:round;paint-order:stroke fill markers"
       id="path3-6-1-1-9"
       cx="10.889546"
       cy="87.156654"
       rx="4.6365495"
       ry="4.7233019"
       inkscape:label="mode" />
    <ellipse
       style="fill:#00ff00;fill-opacity:1;stroke-width:0.424;stroke-linejoin:round;paint-order:stroke fill markers"
       id="path7-0-1"
       cx="23.901098"
       cy="93.360306"
       rx="2.594609"
       ry="2.5335593"
       inkscape:label="mode modulation" />
    <ellipse
       style="fill:#00ff00;fill-opacity:1;stroke-width:0.424;stroke-linejoin:round;paint-order:stroke fill markers"
       id="path7-0-4"
       cx="38.449043"
       cy="65.374557"
       rx="2.594609"
       ry="2.5335593"
       inkscape:label="external" />
  </g>
</svg>
